<svg xmlns="http://www.w3.org/2000/svg" viewBox="0 0 612 430.12"><title>slide-svg1</title><g id="Слой_2" data-name="Слой 2"><g id="Capa_1" data-name="Capa 1"><path style="fill:#fff" d="M21.47,286.58V26.2A26.2,26.2,0,0,1,47.67,0H307.92a26.2,26.2,0,0,1,26.2,26.2V286.58a8.73,8.73,0,0,1-8.73,8.74H30.21A8.74,8.74,0,0,1,21.47,286.58Zm210.16,89.2a54.34,54.34,0,1,1-54.33-54.33A54.33,54.33,0,0,1,231.63,375.78Zm-27.17,0A27.17,27.17,0,1,0,177.29,403,27.16,27.16,0,0,0,204.46,375.78Zm-74-54.33H8.73A8.73,8.73,0,0,0,0,330.18v26.49a8.73,8.73,0,0,0,8.73,8.74h97.6A71.66,71.66,0,0,1,130.49,321.45Zm385.45,54.33a54.34,54.34,0,1,1-54.34-54.33A54.34,54.34,0,0,1,515.94,375.78Zm-27.17,0A27.17,27.17,0,1,0,461.6,403,27.17,27.17,0,0,0,488.77,375.78ZM612,330.18v26.49a8.73,8.73,0,0,1-8.73,8.74H532.56a71.7,71.7,0,0,0-141.93,0H248.26a71.66,71.66,0,0,0-24.16-44h135V71.65a17.47,17.47,0,0,1,17.47-17.46H459A69.85,69.85,0,0,1,516.9,85l53.15,78.72a69.83,69.83,0,0,1,12,39.09V321.45h21.26A8.73,8.73,0,0,1,612,330.18ZM523.41,165.7l-42.5-60.4a8.74,8.74,0,0,0-7.14-3.7h-66.3a8.73,8.73,0,0,0-8.73,8.73v60.39a8.73,8.73,0,0,0,8.73,8.74h108.8A8.74,8.74,0,0,0,523.41,165.7Z"/></g></g></svg>