<svg xmlns="http://www.w3.org/2000/svg" viewBox="0 0 25.81 25.81"><defs><style>.cls-1{fill:#030104;}</style></defs><title>slide-svg3</title><g id="Слой_2" data-name="Слой 2"><g style="fill:#fff" id="Capa_1" data-name="Capa 1"><ellipse style="fill:#fff" class="cls-1" cx="10.81" cy="4.81" rx="10.81" ry="4.81"/><path style="fill:#fff" class="cls-1" d="M13.32,22.49a2,2,0,0,1-1.47-1.57c-.34,0-.69,0-1,0C4.84,21,0,18.79,0,16.13v3.68c0,2.66,4.84,4.82,10.81,4.82a22.57,22.57,0,0,0,2.5-.14A2,2,0,0,1,13.32,22.49Z"/><path style="fill:#fff" class="cls-1" d="M10.81,19.63c.34,0,.67,0,1,0v-.55a2,2,0,0,1,1.52-1.94,2,2,0,0,1-.27-1.27c-.72.07-1.47.11-2.25.11C4.84,16,0,13.79,0,11.13v3.68C0,17.47,4.84,19.63,10.81,19.63Z"/><path style="fill:#fff" class="cls-1" d="M10.81,14.63a23.44,23.44,0,0,0,3.08-.2l.8-.81A2,2,0,0,1,16.11,13a2,2,0,0,1,1,.28,2,2,0,0,1,1.93-1.5h1.58a2.83,2.83,0,0,0,1-2V6.13c0,2.66-4.84,4.82-10.81,4.82S0,8.79,0,6.13V9.81C0,12.47,4.84,14.63,10.81,14.63Z"/><path style="fill:#fff" class="cls-1" d="M25.81,20.55v-1.5L24,18.76a4.59,4.59,0,0,0-.49-1.19l1-1.48L23.52,15l-1.47,1a4,4,0,0,0-1.19-.49l-.31-1.78h-1.5l-.29,1.77a4.46,4.46,0,0,0-1.19.49l-1.46-1-1.06,1.06,1,1.47a4.21,4.21,0,0,0-.49,1.2l-1.77.29v1.5l1.76.31a4.54,4.54,0,0,0,.5,1.2l-1,1.46,1.06,1.06,1.47-1a4.21,4.21,0,0,0,1.2.49l.29,1.77h1.5L20.87,24a4.41,4.41,0,0,0,1.18-.5l1.48,1,1.06-1.06-1.05-1.47A4.32,4.32,0,0,0,24,20.86Zm-6,1.36a2.1,2.1,0,1,1,2.09-2.1A2.1,2.1,0,0,1,19.81,21.91Z"/></g></g></svg>