<svg xmlns="http://www.w3.org/2000/svg" viewBox="0 0 475.08 438.54"><title>slide-svg2</title><g id="Слой_2" data-name="Слой 2"><g id="Capa_1" data-name="Capa 1"><path style="fill:#fff" d="M467.08,300.36a26.42,26.42,0,0,0-19.41-8H315.2l-38.83,38.83q-16.56,16-38.83,16t-38.83-16l-38.54-38.83H27.41a26.47,26.47,0,0,0-19.42,8,26.41,26.41,0,0,0-8,19.41v91.36a26.43,26.43,0,0,0,8,19.42,26.48,26.48,0,0,0,19.42,8H447.67a27.3,27.3,0,0,0,27.41-27.41V319.77A26.38,26.38,0,0,0,467.08,300.36ZM360,396.57a17.91,17.91,0,1,1,5.43-12.84A17.56,17.56,0,0,1,360,396.57Zm73.09,0a17.91,17.91,0,1,1,5.43-12.84A17.56,17.56,0,0,1,433.11,396.57Z"/><path style="fill:#fff" d="M224.69,305.21a17.94,17.94,0,0,0,25.7,0L378.29,177.3q8.85-8.28,4-20-4.85-11.15-16.84-11.14H292.36V18.27a17.58,17.58,0,0,0-5.43-12.84A17.55,17.55,0,0,0,274.09,0H201a17.58,17.58,0,0,0-12.85,5.43,17.55,17.55,0,0,0-5.42,12.84V146.18H109.63q-12,0-16.84,11.14-4.86,11.7,4,20Z"/></g></g></svg>