<svg xmlns="http://www.w3.org/2000/svg" viewBox="0 0 1278.77 623.33"><title>1c</title><g id="Слой_2" data-name="Слой 2"><g id="Слой_1-2" data-name="Слой 1"><path d="M296,0c-.11,2.32-.32,4.64-.32,7q0,304.22,0,608.44v7.24H213.25V83H91.4V76.44q0-35.25,0-70.49c0-2-.25-4-.38-5.95Z"/><path d="M0,125H170.58V622.57H91.41V204H0Z"/><path d="M1278.74,541.8V623c-2.19.11-4.13.3-6.07.3q-281.48,0-563-.14c-26,0-52.06-.64-77.82-3.48-124-13.69-212.06-77.4-262-192-19.36-44.4-26.48-91.55-21.78-139.75C359.79,167.92,420.87,81.52,529,29,577.75,5.22,630.05-2.69,684.08,2,820.36,13.77,932.52,112.12,961.37,245.79c4.15,19.25,4.87,39.24,7.15,58.9a18.46,18.46,0,0,1-.18,2.83H886.67c-.46-6-.79-12.15-1.43-18.22-6.75-64.4-35.72-116.79-86-157.31-31.52-25.42-67.73-40.72-107.71-46.87-117.15-18-231,59.72-256.73,175.2C411.26,366.15,462.76,471.79,560.71,518c21.68,10.24,44.91,15.32,68.5,19.13,29.43,4.76,59.1,4.53,88.73,4.56q276.49.22,553,.07Z"/><path d="M1278.77,412v78.82h-5.53q-280,0-560-.07c-29.29,0-58.56-.57-87.62-5.63-68.09-11.86-124.61-64.57-140.44-131.73-21.41-90.85,28.62-180.83,117-210.47,101.2-33.93,210.35,30.5,229.68,135.7,1.73,9.42,2.45,19,3.7,29H758c-3.32-12-5.38-24.06-10-35.1a96.65,96.65,0,0,0-99.86-59.19C603,218,568.3,250.71,560.74,294c-9.69,55.48,27.75,106.47,83.38,114.37,22.55,3.2,45.15,3.54,67.8,3.54q279.47.12,558.95,0Z"/><path d="M1132.51,114a54.6,54.6,0,0,1-54.42-54.29c0-29.63,24.25-53.56,54.36-53.59,30.71,0,54.54,23.51,54.46,53.78A54,54,0,0,1,1132.51,114Zm46.11-55.06c-.74-25.21-22.21-45.6-47-44.64-25.58,1-45.9,21.5-45.42,45.85.51,25.83,21.87,46.53,47.12,45.68C1159.29,104.93,1179.36,84.16,1178.62,58.92Z"/><path d="M1154.75,86.1c-2.81,0-4.6-.12-6.38,0-3.26.27-4.5-1.29-4.48-4.39,0-2.66-.09-5.33-.3-8-.48-6-2.45-8.14-8.45-9.21C1123.53,62.47,1123,62.9,1123,74.4c0,3.63,0,7.27,0,11.69-2.33,0-4.34.34-6.14-.12-1.19-.32-3-1.78-3-2.74-.19-16.46-.14-32.93-.14-49.66,10,0,19.56-.55,29.06.19,6.52.51,10.69,5,11.86,11.73,1.1,6.3-.94,9.93-8.52,15C1156.82,66.44,1151.38,77.14,1154.75,86.1Zm-23.67-29.21,0,.32c3-.4,6-.41,8.82-1.28,5.52-1.71,7.55-9.81,3-13.33-2.62-2-6.63-2.84-10.1-3.13-9.84-.84-9.86-.62-9.86,9a14.78,14.78,0,0,1,0,2.49c-.77,4.89,1.39,6.7,6.1,6A13.2,13.2,0,0,1,1131.08,56.89Z"/></g></g></svg>