<svg xmlns="http://www.w3.org/2000/svg" viewBox="0 0 639.38 588.24"><title>comment</title><g id="Слой_2" data-name="Слой 2"><g id="Слой_1-2" data-name="Слой 1"><path d="M551.47,0H87.9A88,88,0,0,0,0,87.9V371.6a88,88,0,0,0,87.59,87.9V588.24l185-128.74H551.47a88,88,0,0,0,87.91-87.9V87.9A88,88,0,0,0,551.47,0Zm50.44,371.6A50.49,50.49,0,0,1,551.47,422H260.85l-135.8,94.49V422H87.9A50.5,50.5,0,0,1,37.46,371.6V87.9A50.5,50.5,0,0,1,87.9,37.46H551.47A50.49,50.49,0,0,1,601.91,87.9Z"/><path d="M171.13,132.37H468.25v37.47H171.13Z"/><path d="M171.13,212.3H468.25v37.46H171.13Z"/><path d="M171.13,292.22H468.25v37.46H171.13Z"/></g></g></svg>