<svg xmlns="http://www.w3.org/2000/svg" viewBox="0 0 511 521"><title>percent</title><g id="Слой_2" data-name="Слой 2"><g id="Слой_1-2" data-name="Слой 1"><path d="M511,304v10a11.88,11.88,0,0,0-1,2.27c-2.2,10.46-8.23,18-17.52,23.05-3.8,2.08-7.6,4.15-11.31,6.38-9.43,5.65-15.73,13.89-16.34,24.85-.43,7.82,1.09,15.84,2.42,23.66,3,17.88-7.28,34.6-24.91,38.78-5.92,1.4-12.2,1.5-18.33,1.82-15.8.82-27.73,10-32.28,25.22-1.38,4.62-2.49,9.33-3.91,13.93-5,16.33-21.57,26.47-38.25,23-5.95-1.26-11.66-3.83-17.35-6.14-16-6.49-30.33-3.55-41.5,9.49C283,509.32,275.17,518,263,521H252c-7.38-2.56-14.67-5.25-19.95-11.49q-4.2-5-8.67-9.67c-10.9-11.56-25-14.55-39.6-8.45-4.15,1.72-8.23,3.6-12.41,5.23a33.7,33.7,0,0,1-45.08-21.81c-1.37-4.44-2.45-9-4-13.38-4.77-13.92-14.51-22-29.14-23.77-5.1-.62-10.28-.6-15.43-.85C61.27,436,47.67,424,46.1,407.68c-.64-6.63.58-13.55,1.73-20.21,3.07-17.88-3.21-31.27-19.21-39.86-3.81-2.05-7.68-4-11.39-6.22A33.88,33.88,0,0,1,1.79,305.72c1.83-9.27,8-15.92,13-23.32,8.66-12.86,8.67-27.56-.38-40.1C8.71,234.37,2.47,226.77,0,217V207c3.12-14.68,12.85-23.54,25.9-29.51a35.87,35.87,0,0,0,4.37-2.42c9.08-5.76,15.37-13.83,15.86-24.62.37-8-1.17-16.15-2.5-24.14-2.83-17,7.29-33.8,24-38,6.2-1.58,12.83-1.72,19.28-2.07,15.79-.84,27.76-10,32.31-25.17,1.34-4.45,2.45-9,3.79-13.43,5.09-16.93,21.54-27.1,38.78-23.46,5.62,1.19,11,3.65,16.38,5.85,16.78,6.87,31,3.88,42.66-9.9C228.59,10.94,236.6,2.48,249,0h10c12.06,2.76,20.23,10.88,27.63,20.06.31.39.65.76,1,1.12,10.93,11.54,25,14.53,39.62,8.42,4-1.66,7.93-3.45,11.95-5,19.37-7.7,39.65,2.15,45.65,22.14,1.38,4.61,2.42,9.36,4.12,13.85,5,13.11,14.37,21,28.38,22.74,5.26.67,10.62.64,15.93.91C449.75,85,463.33,97,464.9,113.35c.64,6.62-.58,13.55-1.73,20.21-3.08,17.86,3.2,31.23,19.23,39.85,3.81,2,7.69,4,11.39,6.22a33.87,33.87,0,0,1,15.42,35.67c-1.83,9.28-8,15.92-13,23.32-8.66,12.86-8.66,27.56.4,40.1C502.3,286.64,508.43,294.29,511,304ZM186.31,163.71a52.88,52.88,0,0,0-53.05,52.48c-.22,28.54,24.26,53,52.9,52.88,28.79-.13,52.58-23.83,52.68-52.48A52.61,52.61,0,0,0,186.31,163.71ZM377.36,304.5a52.82,52.82,0,0,0-52.95-52.57c-28.94.09-52.59,24-52.49,53.08.1,28.69,23.89,52.27,52.75,52.27A52.73,52.73,0,0,0,377.36,304.5Zm-191.1,51.88c5,.15,8.38-2.56,11.39-6.18q50.9-61.33,101.87-122.59c11.5-13.84,23-27.64,34.46-41.54,3.86-4.69,4.27-10.1,1.54-14.87-2.63-4.61-7.87-7.68-13-6.16a21,21,0,0,0-9.63,6.34Q256.23,239,200,306.94,188.33,321,176.69,335c-3.51,4.24-4.26,9-1.94,14C177,353.78,181,356.22,186.26,356.38Z"/><path d="M186.41,194.8a21.25,21.25,0,0,1,21.46,21.53,21.63,21.63,0,0,1-21.59,21.54,21.31,21.31,0,0,1-21.59-21.41C164.62,204,173.94,194.75,186.41,194.8Z"/><path d="M303.12,304.29c.13-12.23,9.74-21.37,22.26-21.17a21.53,21.53,0,1,1-22.26,21.17Z"/></g></g></svg>