<?xml version="1.0" encoding="utf-8"?>
<!-- Generator: Adobe Illustrator 23.0.2, SVG Export Plug-In . SVG Version: 6.00 Build 0)  -->
<svg version="1.1" id="Layer_1" xmlns="http://www.w3.org/2000/svg" xmlns:xlink="http://www.w3.org/1999/xlink" x="0px" y="0px"
	 viewBox="0 0 512 512" style="enable-background:new 0 0 512 512;" xml:space="preserve">
<g>
	<g>
		<path d="M488.5,174.9H293.7V27c0-10.7-8.7-19.4-19.4-19.4h-36.7c-10.7,0-19.4,8.7-19.4,19.4v147.9H23.5
			C10.5,174.9,0,185.4,0,198.4v50.6c0,12.9,10.5,23.5,23.5,23.5h3.4l26.4,187.9c3.5,25.1,25.3,44.1,50.7,44.1H408
			c25.4,0,47.2-18.9,50.7-44.1l26.4-187.9h3.4c12.9,0,23.5-10.5,23.5-23.5v-50.6C512,185.4,501.5,174.9,488.5,174.9z M238.7,28h34.7
			v194.8h-34.7L238.7,28L238.7,28z M438.5,457.5c-2.1,15.1-15.2,26.5-30.5,26.5H104c-15.3,0-28.4-11.4-30.5-26.5l-26-185h417.1
			L438.5,457.5z M491.6,248.9c0,1.7-1.4,3.1-3.1,3.1H23.5c-1.7,0-3.1-1.4-3.1-3.1v-50.6c0-1.7,1.4-3.1,3.1-3.1h194.8v28.6
			c0,10.7,8.7,19.4,19.4,19.4h36.7c10.7,0,19.4-8.7,19.4-19.4v-28.6h194.8c1.7,0,3.1,1.4,3.1,3.1L491.6,248.9L491.6,248.9z"/>
	</g>
</g>
<g>
	<g>
		<path d="M110.2,296.3c-5.6,0-10.2,4.6-10.2,10.2v142.8c0,5.6,4.6,10.2,10.2,10.2c5.6,0,10.2-4.6,10.2-10.2V306.5
			C120.4,300.9,115.8,296.3,110.2,296.3z"/>
	</g>
</g>
<g>
	<g>
		<path d="M168.5,296.3c-5.6,0-10.2,4.6-10.2,10.2v142.8c0,5.6,4.6,10.2,10.2,10.2s10.2-4.6,10.2-10.2V306.5
			C178.7,300.9,174.1,296.3,168.5,296.3z"/>
	</g>
</g>
<g>
	<g>
		<path d="M226.8,296.3c-5.6,0-10.2,4.6-10.2,10.2v142.8c0,5.6,4.6,10.2,10.2,10.2c5.6,0,10.2-4.6,10.2-10.2V306.5
			C237,300.9,232.5,296.3,226.8,296.3z"/>
	</g>
</g>
<g>
	<g>
		<path d="M285.2,296.3c-5.6,0-10.2,4.6-10.2,10.2v142.8c0,5.6,4.6,10.2,10.2,10.2c5.6,0,10.2-4.6,10.2-10.2V306.5
			C295.4,300.9,290.8,296.3,285.2,296.3z"/>
	</g>
</g>
<g>
	<g>
		<path d="M343.5,296.3c-5.6,0-10.2,4.6-10.2,10.2v142.8c0,5.6,4.6,10.2,10.2,10.2c5.6,0,10.2-4.6,10.2-10.2V306.5
			C353.7,300.9,349.1,296.3,343.5,296.3z"/>
	</g>
</g>
<g>
	<g>
		<path d="M401.8,296.3c-5.6,0-10.2,4.6-10.2,10.2v8.2c0,5.6,4.6,10.2,10.2,10.2c5.6,0,10.2-4.6,10.2-10.2v-8.2
			C412,300.9,407.5,296.3,401.8,296.3z"/>
	</g>
</g>
<g>
	<g>
		<path d="M401.8,343.2c-5.6,0-10.2,4.6-10.2,10.2v95.9c0,5.6,4.6,10.2,10.2,10.2c5.6,0,10.2-4.6,10.2-10.2v-95.9
			C412,347.8,407.5,343.2,401.8,343.2z"/>
	</g>
</g>
</svg>
