<?xml version="1.0" encoding="utf-8"?>
<!-- Generator: Adobe Illustrator 23.0.2, SVG Export Plug-In . SVG Version: 6.00 Build 0)  -->
<svg version="1.1" id="Слой_1" xmlns="http://www.w3.org/2000/svg" xmlns:xlink="http://www.w3.org/1999/xlink" x="0px" y="0px"
	 viewBox="0 0 511 512" style="enable-background:new 0 0 511 512;" xml:space="preserve">
<path d="M306.1,179c5.5,0,10-4.5,10-10s-4.5-10-10-10c-5.5,0-10,4.5-10,10S300.5,179,306.1,179z"/>
<path d="M206.1,179c5.5,0,10-4.5,10-10s-4.5-10-10-10c-5.5,0-10,4.5-10,10S200.5,179,206.1,179z"/>
<path d="M229.3,247.7c8.4,4,17.4,6,26.7,6c9.1,0,18-1.9,26.2-5.7c5-2.3,7.2-8.2,4.9-13.3c-2.3-5-8.2-7.2-13.3-4.9
	c-5.6,2.6-11.6,3.9-17.9,3.9c-6.4,0-12.5-1.4-18.2-4.1c-5-2.4-11-0.2-13.3,4.8C222.2,239.4,224.3,245.4,229.3,247.7z"/>
<path d="M476.6,404.8c0-55-62.6-98.1-116.3-100.2L332.9,280c33.4-24.3,53.6-63.4,53.6-105v-66C386.5,48.3,337-1,276.1-1h-40
	c-60.8,0-109.6,49.2-109.6,110v66c0,41.5,20,80.5,52.9,104.8l-27.6,24.8c-53.6,2-116.3,45.1-116.3,100.2V501c0,5.5,4.5,10,10,10
	h421.1c5.5,0,10-4.5,10-10V404.8z M233.9,445h44.2l10.5,46h-65.5L233.9,445z M279,425h-45.7l-7.7-23.9l30.5-15.2l31.1,15.6L279,425z
	 M256,355.8l-34.8-55.6c11.3,3.1,23,4.8,34.9,4.8c11.7,0,23.4-1.6,34.6-4.7L256,355.8z M270.4,370.7l48-76.8l25.9,23.3l-32.9,74
	L270.4,370.7z M236.1,19h40c49.8,0,90.4,40.4,90.4,90v8.3l-18.8-27c-1.7-2.4-4.4-4-7.4-4.3c-3-0.3-5.9,0.8-8,3
	C312,109.7,288.5,119,256.1,119c-32.4,0-56-9.3-76.3-30.1c-2.1-2.1-5-3.2-8-3c-3,0.3-5.7,1.8-7.4,4.3l-17.8,26.1V109
	C146.5,59.4,186.7,19,236.1,19z M146.5,175v-23.1l27.8-40.7c22.3,18.9,48.5,27.8,81.8,27.8c33.3,0,59.6-8.9,81.8-27.9l28.6,41.2V175
	c0,59.9-48.9,110-110.4,110C194.9,285,146.5,235,146.5,175z M193.7,293.8l48,76.8l-41,20.5l-32.9-74L193.7,293.8z M55.5,404.8
	c0-41.2,50.1-76.8,93.8-80l37.4,84.1c1.1,2.5,3.2,4.4,5.8,5.3s5.4,0.8,7.8-0.5l7.1-3.6l8.1,25.3l-13,55.6H55.5V404.8z M456.6,491
	H309.1l-12.6-55.4l8.7-25.1l6.5,3.3c2.5,1.2,5.3,1.4,7.8,0.5c2.6-0.9,4.7-2.9,5.8-5.3l37.4-84.1c43.8,3.2,93.8,38.8,93.8,80V491z"/>
<path d="M386.1,445h-40c-5.5,0-10,4.5-10,10s4.5,10,10,10h40c5.5,0,10-4.5,10-10S391.6,445,386.1,445z"/>
<path d="M425.5,445c5.5,0,10,4.5,10,10s-4.5,10-10,10s-10-4.5-10-10S420,445,425.5,445z"/>
</svg>
