<?xml version="1.0" encoding="utf-8"?>
<!-- Generator: Adobe Illustrator 23.0.2, SVG Export Plug-In . SVG Version: 6.00 Build 0)  -->
<svg version="1.1" id="Capa_1" xmlns="http://www.w3.org/2000/svg" xmlns:xlink="http://www.w3.org/1999/xlink" x="0px" y="0px"
	 viewBox="0 0 512 512" style="enable-background:new 0 0 512 512;" xml:space="preserve">
<g>
	<g>
		<path d="M502,92.5H340V78.8c0-18.4-15-33.3-33.3-33.3H192.3c-18.4,0-33.3,15-33.3,33.3v13.7H10c-5.5,0-10,4.5-10,10V210
			c0,3.5,1.8,6.7,4.8,8.5c4.3,2.6,8.3,5.1,12.2,7.5v230.4c0,5.5,4.5,10,10,10h228c0.2,0,0.3,0,0.5,0c0.2,0,0.3,0,0.5,0h228
			c5.5,0,10-4.5,10-10V226.7c4.2-2.6,8.6-5.3,13.2-8.2c3-1.8,4.8-5.1,4.8-8.5V102.5C512,97,507.5,92.5,502,92.5z M179,78.8
			c0-7.4,6-13.3,13.3-13.3h114.3c7.4,0,13.3,6,13.3,13.3v13.7H179V78.8z M256,446.5c-0.2,0-0.3,0-0.5,0c-0.2,0-0.3,0-0.5,0H37V238.9
			c4.8,3.1,9.2,6.1,13.5,8.9c48.5,32,67.9,44.7,147,45.6c4.1,14.5,17.4,25.1,33.2,25.1h49.5c15.8,0,29.1-10.6,33.2-25.1
			c80-0.8,99.3-13.5,148-45.6c4-2.6,8.2-5.4,12.5-8.2v207H256z M216.7,280.3c1.6-6.2,7.3-10.8,14-10.8h49.5c8,0,14.5,6.5,14.5,14.5
			s-6.5,14.5-14.5,14.5h-49.5c-7,0-12.8-4.9-14.2-11.5c0.4-1.1,0.7-2.3,0.7-3.6C217.3,282.3,217.1,281.3,216.7,280.3z M492,204.4
			c-16.5,10.1-29.7,18.9-41.5,26.7c-47.7,31.4-63.3,41.6-137.4,42.3c-4.5-13.8-17.5-23.9-32.8-23.9h-49.5c-15.3,0-28.3,10-32.8,23.9
			c-73.3-0.8-88.9-11.1-136.4-42.3c-11.8-7.8-25.1-16.5-41.5-26.7v-91.9h149h161h162V204.4z"/>
	</g>
</g>
<g>
	<g>
		<path d="M466,127.5h-41c-5.5,0-10,4.5-10,10s4.5,10,10,10h41c5.5,0,10-4.5,10-10S471.5,127.5,466,127.5z"/>
	</g>
</g>
<g>
	<g>
		<circle cx="396.5" cy="137" r="10"/>
	</g>
</g>
</svg>
