<?xml version="1.0" encoding="utf-8"?>
<!-- Generator: Adobe Illustrator 23.0.2, SVG Export Plug-In . SVG Version: 6.00 Build 0)  -->
<svg version="1.1" id="Слой_1" xmlns="http://www.w3.org/2000/svg" xmlns:xlink="http://www.w3.org/1999/xlink" x="0px" y="0px"
	 viewBox="0 0 512 512" style="enable-background:new 0 0 512 512;" xml:space="preserve">
<path d="M230.4,334.4c3.9-3.9,3.9-10.2,0-14.2c-3.9-3.9-10.2-3.9-14.1,0c-3.9,3.9-3.9,10.2,0,14.2
	C220.1,338.3,226.5,338.3,230.4,334.4z"/>
<path d="M234,99v20c0,33.1,26.9,60,60,60c33.1,0,60-26.9,60-60V99c5.5,0,10-4.5,10-10s-4.5-10-10-10h-20c-5.5,0-10,4.5-10,10
	s4.5,10,10,10v20c0,22.1-17.9,40-40,40c-22.1,0-40-17.9-40-40V99c5.5,0,10-4.5,10-10s-4.5-10-10-10h-20c-5.5,0-10,4.5-10,10
	S228.5,99,234,99z"/>
<path d="M116.2,490.9c2,1.9,4.5,2.9,7.1,2.9s5.1-1,7.1-2.9l30.7-30.7c10-10,14.8-23.7,13.4-37.5l11-10.6
	c8.7-8.4,20.2-13.1,32.3-13.1h131.7c23.6,0,45.9-9.1,62.8-25.5c0.3-0.2,0.5-0.5,0.7-0.8l89.6-107.6c14.2-16.8,12.1-42.1-4.8-56.4
	c-16.8-14.1-41.9-12.1-56.1,4.5l-9.7,10V28c0-5.5-4.5-10-10-10H165c-5.5,0-10,4.5-10,10v224.1c-38.7,8.1-69.4,32.2-86,67.3
	c-13-0.7-25.8,4.1-35.2,13.6L2.9,363.6c-1.9,1.9-2.9,4.4-2.9,7.1c0,2.7,1.1,5.2,2.9,7.1L116.2,490.9z M412,38v205.9l-28.9,29.9
	c-7.4-9.2-18.8-14.9-31.1-14.9H236.1c-0.6,0-1.3-0.1-2-0.4c-15.6-6.4-32.1-9.6-49-9.6c-3.3,0-6.7,0.1-10,0.3V38H412z M166.4,270.3
	c20.2-2.9,40.5-1.2,60.1,6.8c3.1,1.3,6.3,1.9,9.5,1.9H352c10.8,0,20,8.8,20,20c0,11-9,20-20,20h-87c-5.5,0-10,4.5-10,10
	s4.5,10,10,10h87c22.1,0,40-17.9,40-40c0-1.8-0.1-3.5-0.4-5.3c2.1-2.1,62.5-64.7,64.6-66.8c0.2-0.2,0.3-0.3,0.4-0.5
	c7.1-8.4,19.8-9.5,28.2-2.4c8.4,7.1,9.5,19.8,2.3,28.2L398,359.5c-13.1,12.6-30.3,19.5-48.5,19.5H217.8c-17.3,0-33.7,6.6-46.2,18.7
	l-4.4,4.3c-1.8-2.7-3.8-5.3-6.1-7.6l-61.4-61.4c-3.3-3.3-7-6-11-8.2C103.9,294.7,131.2,275.4,166.4,270.3z M47.9,347.1
	c10.5-10.5,27.3-10.3,37.6,0l61.4,61.4c10.3,10.3,10.5,27.1,0,37.6l-23.6,23.6l-99.1-99L47.9,347.1z"/>
</svg>
