<?xml version="1.0" encoding="utf-8"?>
<!-- Generator: Adobe Illustrator 23.0.2, SVG Export Plug-In . SVG Version: 6.00 Build 0)  -->
<svg version="1.1" id="Слой_1" xmlns="http://www.w3.org/2000/svg" xmlns:xlink="http://www.w3.org/1999/xlink" x="0px" y="0px"
	 viewBox="0 0 512 512" style="enable-background:new 0 0 512 512;" xml:space="preserve">
<path d="M414,266c5.5,0,10-4.5,10-10c0-5.5-4.5-10-10-10s-10,4.5-10,10C404,261.5,408.5,266,414,266z"/>
<path d="M255,386c-5.5,0-10,4.5-10,10s4.5,10,10,10c66.3,0,127-39,154.6-99.2c2.3-5,0.1-11-4.9-13.3c-5-2.3-11-0.1-13.3,4.9
	C367,351.6,313.5,386,255,386z"/>
<path d="M512,215.5c0-0.2,0-0.4,0-0.5c0,0,0,0,0,0c-4.2-37.9-31.9-68.8-66.6-82C459.1,121.9,468,105,468,86c0-33.1-26.9-60-60-60
	s-60,26.9-60,60c0,19,8.8,35.9,22.6,46.9c-15.6,5.8-29.7,15.2-40.5,27.1c-10.5-11.9-23.5-21.1-38-26.8c13.9-11,22.9-28,22.9-47.1
	c0-33.1-26.9-60-60-60s-60,26.9-60,60c0,19.1,9,36.1,22.9,47.1c-14.5,5.8-27.5,14.9-38,26.8c-10.8-11.9-24.9-21.2-40.5-27.1
	C153.2,121.9,162,105,162,86c0-33.1-26.9-60-60-60S42,52.9,42,86c0,19.1,8.9,36.1,22.8,47.1c-33.3,13-57.7,42.5-63.2,77.4
	C0.6,212.1,0,214,0,216v49c0,4.7,3.3,8.8,7.9,9.8l43.5,9.6c5.2,21.5,13.7,41.8,25.3,60.4l-20.1,33.6c-2.4,3.9-1.7,9,1.5,12.2
	l42.4,42.4c3.2,3.2,8.3,3.9,12.2,1.5l34.1-20.5c18.7,11.3,38.7,19.6,59.8,24.6c2.9,11.5,8.9,35.4,9.7,38.6c0,0.2,0.1,0.4,0.1,0.5
	c1.1,4.3,5,7.4,9.7,7.4c0.5,0,1.1,0,1.6-0.1H286c4.6,0,8.6-3.1,9.7-7.6l9.7-38.8c21.1-5,41.2-13.2,59.8-24.6l34.1,20.5
	c3.9,2.4,9,1.7,12.2-1.5l42.4-42.4c3.2-3.2,3.9-8.3,1.5-12.2l-20.1-33.6c11.6-18.7,20.1-38.9,25.3-60.4l43.5-9.6
	c4.6-1,7.9-5.1,7.9-9.8v-49c0,0,0,0,0,0C512,215.8,512,215.6,512,215.5z M368,86c0-22.1,17.9-40,40-40s40,17.9,40,40s-17.9,40-40,40
	S368,108.1,368,86z M408,146c38,0,72.4,26.1,81.9,60H353c-2.1-10.2-5.8-20.1-11-29.3C357.1,157.9,382.3,146,408,146z M365,236
	c0,60.7-49.3,110-110,110s-110-49.3-110-110c0-3.4,0.2-6.7,0.5-10h219.1C364.8,229.3,365,232.6,365,236z M215,86
	c0-22.1,17.9-40,40-40s40,17.9,40,40s-17.9,40-40,40S215,108.1,215,86z M255,146c36.4,0,68.3,24.6,77.5,60H177.5
	C186.7,170.6,218.6,146,255,146z M62,86c0-22.1,17.9-40,40-40s40,17.9,40,40s-17.9,40-40,40S62,108.1,62,86z M102,146
	c25.7,0,50.9,11.9,66,30.7c-5.2,9.1-8.9,19-11,29.3H23C32.2,171.6,64.8,146,102,146z M492,257l-41.9,9.2c-3.8,0.8-6.8,3.9-7.6,7.7
	c-4.9,23.5-14.1,45.4-27.3,65.2c-2.1,3.2-2.2,7.4-0.2,10.7l19.3,32.2l-31.4,31.4l-32.7-19.6c-3.3-2-7.4-1.9-10.6,0.2
	c-19.8,12.9-41.5,21.8-64.5,26.4c-3.8,0.8-6.8,3.6-7.7,7.4l-9.3,37.3h-44.4c-2.4-9.4-6.3-25.1-8.2-32.8c-0.7-1.6-0.7-10.2-8.8-11.8
	c-23-4.7-44.6-13.6-64.5-26.4c-3.2-2.1-7.3-2.1-10.6-0.2l-32.7,19.6l-31.4-31.4L97,349.7c2-3.3,1.9-7.5-0.2-10.7
	c-13.1-19.8-22.3-41.7-27.3-65.2c-0.8-3.8-3.8-6.9-7.6-7.7L20,257v-31h105.4c-0.3,3.3-0.4,6.6-0.4,10c0,71.7,58.3,130,130,130
	s130-58.3,130-130c0-3.4-0.1-6.7-0.4-10H492V257z"/>
</svg>
