<?xml version="1.0" encoding="utf-8"?>
<!-- Generator: Adobe Illustrator 23.0.2, SVG Export Plug-In . SVG Version: 6.00 Build 0)  -->
<svg version="1.1" id="Capa_1" xmlns="http://www.w3.org/2000/svg" xmlns:xlink="http://www.w3.org/1999/xlink" x="0px" y="0px"
	 viewBox="0 0 512 512" style="enable-background:new 0 0 512 512;" xml:space="preserve">
<g>
	<g>
		<path d="M141.1,464.2c-1.9-1.9-4.4-2.9-7.1-2.9s-5.2,1.1-7.1,2.9s-2.9,4.4-2.9,7.1s1.1,5.2,2.9,7.1c1.9,1.9,4.4,2.9,7.1,2.9
			s5.2-1.1,7.1-2.9c1.9-1.9,2.9-4.4,2.9-7.1C144,468.7,142.9,466.1,141.1,464.2z"/>
	</g>
</g>
<g>
	<g>
		<path d="M505,322.1c-12.3-19.3-37-26.1-57.5-15.9l-107.4,53.8c-4.9,2.5-6.9,8.5-4.5,13.4s8.5,6.9,13.4,4.5l107.4-53.8
			c11.3-5.7,24.9-1.9,31.7,8.8c3.7,5.8,4.8,12.6,3.1,19.3c-1.7,6.6-6,12.1-12,15.4l-144.4,78.8c-17.9,9.8-38.2,14.9-58.6,14.9H172
			c-5.5,0-10,4.5-10,10s4.5,10,10,10h104.3c23.7,0,47.3-6,68.1-17.4l144.4-78.8c10.8-5.9,18.7-16.1,21.8-28
			C513.7,345.3,511.6,332.5,505,322.1z"/>
	</g>
</g>
<g>
	<g>
		<path d="M298.4,361.3l-44.3-35.1c-22.9-18.1-51.5-28.1-80.6-28.1H96.9v-0.6c0-5.5-4.5-10-10-10H10c-5.5,0-10,4.5-10,10
			s4.5,10,10,10h66.9V472H10c-5.5,0-10,4.5-10,10s4.5,10,10,10h76.9c5.5,0,10-4.5,10-10V318.1h76.6c24.7,0,48.9,8.4,68.2,23.8
			L286,377c5.4,4.3,8,10.9,7.1,17.7c-1,6.8-5.3,12.4-11.7,15c-5.9,2.4-12.5,1.7-17.8-1.8l-56.6-37.6c-4.6-3.1-10.8-1.8-13.9,2.8
			c-3.1,4.6-1.8,10.8,2.8,13.9l56.6,37.6c6.5,4.3,14,6.5,21.6,6.5c5,0,10-1,14.8-2.9c13-5.3,22-16.8,24-30.7
			C314.8,383.6,309.4,370,298.4,361.3z"/>
	</g>
</g>
<g>
	<g>
		<path d="M51.1,339.5c-3.7-4.1-10.1-4.3-14.1-0.6l-0.1,0.1c-4.1,3.7-4.3,10.1-0.6,14.1c2,2.1,4.7,3.2,7.4,3.2
			c2.4,0,4.8-0.9,6.8-2.6l0.1-0.1C54.6,349.9,54.9,343.5,51.1,339.5z"/>
	</g>
</g>
<g>
	<g>
		<path d="M448.6,95.8c4.5-6.6,7.1-14.6,7.1-23.2V61.7c0-23-18.7-41.7-41.7-41.7c-23,0-41.7,18.7-41.7,41.7v10.9
			c0,8.6,2.6,16.6,7.1,23.2c-14.7,3.5-27.3,12.4-35.4,24.5c-8.2-12.2-20.8-21.1-35.4-24.5c4.5-6.6,7.1-14.6,7.1-23.2V61.7
			c0-23-18.7-41.7-41.7-41.7c-23,0-41.7,18.7-41.7,41.7v10.9c0,8.6,2.6,16.6,7.1,23.2c-14.7,3.5-27.3,12.4-35.4,24.5
			c-8.2-12.2-20.8-21.1-35.4-24.5c4.5-6.6,7.1-14.6,7.1-23.2V61.7c0-23-18.7-41.7-41.7-41.7S92.3,38.7,92.3,61.7v10.9
			c0,8.6,2.6,16.6,7.1,23.2c-26,6.1-45.4,29.5-45.4,57.3V236c0,5.5,4.5,10,10,10h420c5.5,0,10-4.5,10-10v-82.8
			C494,125.3,474.6,101.9,448.6,95.8z M112.3,61.7c0-11.9,9.7-21.7,21.7-21.7c11.9,0,21.7,9.7,21.7,21.7v10.9
			c0,11.9-9.7,21.7-21.7,21.7c-11.9,0-21.7-9.7-21.7-21.7V61.7z M194,226H74v-72.8c0-21.5,17.5-38.9,38.9-38.9H124v36.9
			c0,5.5,4.5,10,10,10c5.5,0,10-4.5,10-10v-36.9h11.1c21.5,0,38.9,17.5,38.9,38.9L194,226L194,226z M252.3,61.7
			c0-11.9,9.7-21.7,21.7-21.7s21.7,9.7,21.7,21.7v10.9c0,11.9-9.7,21.7-21.7,21.7c-11.9,0-21.7-9.7-21.7-21.7V61.7z M334,226H214
			v-72.8c0-21.5,17.5-38.9,38.9-38.9H264v36.9c0,5.5,4.5,10,10,10s10-4.5,10-10v-36.9h11.1c21.5,0,38.9,17.5,38.9,38.9L334,226
			L334,226z M392.3,61.7c0-11.9,9.7-21.7,21.7-21.7c11.9,0,21.7,9.7,21.7,21.7v10.9c0,11.9-9.7,21.7-21.7,21.7
			c-11.9,0-21.7-9.7-21.7-21.7V61.7z M474,226H354v-72.8c0-21.5,17.5-38.9,38.9-38.9H404v36.9c0,5.5,4.5,10,10,10s10-4.5,10-10
			v-36.9h11.1c21.5,0,38.9,17.5,38.9,38.9L474,226L474,226z"/>
	</g>
</g>
</svg>
