<?xml version="1.0" encoding="utf-8"?>
<!-- Generator: Adobe Illustrator 23.0.2, SVG Export Plug-In . SVG Version: 6.00 Build 0)  -->
<svg version="1.1" id="Capa_1" xmlns="http://www.w3.org/2000/svg" xmlns:xlink="http://www.w3.org/1999/xlink" x="0px" y="0px"
	 viewBox="0 0 391.2 391.2" style="enable-background:new 0 0 391.2 391.2;" xml:space="preserve">
<path d="M147.9,95.6c-50.9,19.7-84.8,69.6-84.8,124.2v36.3c0,5-4.4,9.1-9.4,9.1H35c-15.3,0-27.9-12.6-27.9-27.9v-41
	c0-12.1,7.8-22.7,19.3-26.4c4.7-1.5,9.8,1.1,11.4,5.8s-1.1,9.8-5.8,11.3c-4,1.3-6.9,5.1-6.9,9.3v41c0,5.4,4.5,9.9,9.9,9.9h10.1
	v-27.5c0-31.1,9.2-60.9,26.9-86.4c17.3-24.8,41.1-43.7,69.2-54.6c4.6-1.8,9.8,0.5,11.6,5.1C154.7,88.6,152.6,93.8,147.9,95.6z
	 M294.2,100.7c0,18.9-15.4,34.2-34.2,34.2c-18.9,0-34.2-15.4-34.2-34.2s15.4-34.2,34.2-34.2C278.8,66.5,294.2,81.8,294.2,100.7z
	 M276.2,100.7c0-9-7.3-16.2-16.2-16.2c-9,0-16.2,7.3-16.2,16.2S251,117,259.9,117C268.9,117,276.2,109.7,276.2,100.7z M384.1,196.3
	v41c0,15.3-12,27.9-27.4,27.9h-16.6c-5.5,17-14.1,33.8-25.8,48.5c-19.2,24.2-45.5,42.1-74.9,50.9c-1.3,14.8-13.8,26.6-28.9,26.6
	h-29.3c-16,0-29-13-29-29c0-16,13-29,29-29h29.3c10.5,0,19.8,5.5,24.9,13.9c55.5-17.2,93.6-68.6,93.6-127.3
	c0-18.1-3.6-35.6-10.6-52.1l-11.8-5.3c-5.1,3.9-10.6,7.1-16.5,9.5l-1.5,14.2c-0.5,9.4-11.4,15.2-28.7,15.2
	c-17.3,0-28.2-5.8-28.7-15.2l-1.5-14.2c-5.9-2.5-11.4-5.7-16.5-9.5l-13.1,5.9c-8.4,4.2-18.8-2.3-27.4-17.2c-3.1-5.4-5.3-11-6.3-15.8
	c-1.9-10.1,2.1-14.6,5.1-16.6l11.6-8.4c-0.4-3.1-0.6-6.3-0.6-9.4c0-3.2,0.2-6.4,0.6-9.6l-11.6-8.4c-7.9-5.1-7.5-17.4,1.2-32.4
	c8.6-15,19.1-21.5,27.4-17.2l13.2,5.9c5.1-3.8,10.5-7,16.3-9.4l1.5-14.3C231.7,5.8,242.6,0,259.9,0c17.3,0,28.2,5.8,28.7,15.2
	l1.5,14.4c5.8,2.5,11.3,5.6,16.3,9.4l13.2-5.9c3.2-1.6,9.1-2.8,16.9,3.9c3.7,3.2,7.5,8,10.6,13.3c8.6,15,9.1,27.3,1.2,32.4
	l-11.7,8.4c0.4,3.2,0.6,6.4,0.6,9.5c0,3.1-0.2,6.3-0.6,9.4l11.7,8.4c7.9,5.1,7.4,17.4-1.2,32.4c-3.1,5.4-6.9,10.1-10.6,13.4
	c0,0,0,0,0,0c7,17.6,10.5,36.3,10.5,55.5c0,9.3-0.8,18.4-2.4,27.4h12.2c5.4,0,9.4-4.5,9.4-9.9v-41c0-4.2-2.6-8-6.7-9.3
	c-4.7-1.5-7.2-6.6-5.7-11.3c1.5-4.7,6.5-7.3,11.2-5.8C376.6,173.6,384.1,184.2,384.1,196.3z M221.6,362.1c0-0.7-0.1-1.5-0.2-2.2
	c0-0.1,0-0.1-0.1-0.2c-1.1-4.9-5.5-8.4-10.8-8.4h-29.3c-6.1,0-11,4.9-11,11c0,6.1,5,11,11,11h29.3
	C216.6,373.2,221.6,368.2,221.6,362.1z M321.6,79.8l14.1-10.2c-0.4-2.1-1.6-5.8-4.2-10.3c-2.6-4.5-5.2-7.4-6.8-8.8l-16,7.1
	c-3.2,1.4-7,0.9-9.6-1.5c-6-5.3-12.8-9.2-20.3-11.7c-3.3-1.1-5.7-4.1-6.1-7.6l-1.8-17.4c-2-0.7-5.8-1.5-11-1.5c-5.2,0-9,0.8-11,1.5
	l-1.8,17.4c-0.4,3.5-2.7,6.5-6.1,7.6c-7.5,2.5-14.3,6.4-20.2,11.7c-2.6,2.3-6.4,2.9-9.6,1.5l-16-7.1c-1.6,1.4-4.2,4.3-6.8,8.8
	c-2.6,4.5-3.8,8.2-4.2,10.3l14.1,10.2c2.9,2.1,4.2,5.6,3.5,9.1c-0.8,3.9-1.2,7.8-1.2,11.8c0,3.9,0.4,7.9,1.2,11.7
	c0.7,3.4-0.7,7-3.5,9l-14.1,10.2c0.4,2.1,1.6,5.8,4.2,10.3c2.6,4.5,5.2,7.4,6.8,8.8l15.9-7.1c3.2-1.4,7-0.9,9.6,1.5
	c6,5.3,12.8,9.3,20.4,11.8c3.3,1.1,5.7,4.1,6.1,7.6l1.8,17.2c2,0.7,5.8,1.5,11,1.5c5.2,0,9-0.8,11-1.5l1.8-17.2
	c0.4-3.5,2.7-6.5,6.1-7.6c7.5-2.5,14.4-6.5,20.4-11.8c2.6-2.3,6.4-2.9,9.6-1.5l15.9,7.1c1.6-1.4,4.2-4.3,6.8-8.8
	c2.6-4.5,3.8-8.2,4.2-10.3l-14.1-10.2c-2.9-2.1-4.2-5.6-3.5-9.1c0.8-3.8,1.1-7.7,1.1-11.7c0-4-0.4-7.9-1.2-11.8
	C317.3,85.4,318.7,81.9,321.6,79.8z"/>
</svg>
