<?xml version="1.0" encoding="utf-8"?>
<!-- Generator: Adobe Illustrator 23.0.2, SVG Export Plug-In . SVG Version: 6.00 Build 0)  -->
<svg version="1.1" id="Capa_1" xmlns="http://www.w3.org/2000/svg" xmlns:xlink="http://www.w3.org/1999/xlink" x="0px" y="0px"
	 viewBox="0 0 512 512" style="enable-background:new 0 0 512 512;" xml:space="preserve">
<g>
	<g>
		<path d="M315.9,285.3c-5.5,0-10,4.5-10,10s4.5,10,10,10s10-4.5,10-10S321.4,285.3,315.9,285.3z"/>
	</g>
</g>
<g>
	<g>
		<path d="M317.5,179.6L295,166.6c0.6-3.8,0.9-7.4,0.9-11s-0.3-7.2-0.9-11l22.4-12.9c4.8-2.8,6.4-8.9,3.6-13.6l-20-34.6
			c-1.3-2.3-3.5-4-6.1-4.6c-2.6-0.7-5.3-0.3-7.6,1l-22.5,13c-5.7-4.5-12.1-8.1-19-10.8V52.9c0-5.5-4.5-10-10-10h-39.9
			c-5.5,0-10,4.5-10,10V82c-6.8,2.8-13.3,6.4-19,10.8l-22.5-13c-4.8-2.8-10.9-1.1-13.6,3.7l-20,34.6c-2.8,4.8-1.1,10.9,3.7,13.6
			l22.4,12.9c-0.6,3.8-0.9,7.4-0.9,11s0.3,7.2,0.9,11l-22.4,12.9c-4.8,2.8-6.4,8.9-3.7,13.6l20,34.6c2.8,4.8,8.9,6.4,13.6,3.7
			l22.5-13c5.7,4.4,12.1,8.1,19,10.8v26.1c0,5.5,4.5,10,10,10H236c5.5,0,10-4.5,10-10v-26.1c6.9-2.8,13.2-6.4,19-10.8l22.5,13
			c2.3,1.3,5,1.7,7.6,1c2.6-0.7,4.7-2.4,6.1-4.6l20-34.6C323.9,188.4,322.2,182.3,317.5,179.6z M288.9,209.1l-20-11.5
			c-3.8-2.2-8.6-1.6-11.8,1.4c-6.7,6.3-14.7,10.9-23.9,13.6c-4.2,1.3-7.1,5.1-7.1,9.6v23.2h-20v-23.2c0-4.4-2.9-8.3-7.1-9.6
			c-9.2-2.8-17.2-7.4-23.9-13.6c-3.2-3-8-3.6-11.8-1.4l-20,11.5l-10-17.3l20-11.5c3.8-2.2,5.7-6.7,4.7-11c-1.2-5-1.8-9.5-1.8-13.8
			c0-4.2,0.6-8.7,1.8-13.8c1-4.3-0.9-8.7-4.7-11l-20-11.5l10-17.3l20,11.5c3.8,2.2,8.6,1.6,11.8-1.4c6.7-6.3,14.7-10.9,23.9-13.6
			c4.2-1.3,7.1-5.2,7.1-9.6V62.8h20V89c0,4.4,2.9,8.3,7.1,9.6c9.2,2.8,17.2,7.4,23.9,13.6c3.2,3,8,3.6,11.8,1.4l20-11.5l10,17.3
			l-20,11.5c-3.8,2.2-5.7,6.7-4.7,11c1.2,5,1.8,9.5,1.8,13.8c0,4.2-0.6,8.7-1.8,13.8c-1,4.3,0.9,8.7,4.7,11l20,11.5L288.9,209.1z"/>
	</g>
</g>
<g>
	<g>
		<path d="M216.1,115.7c-22,0-39.9,17.9-39.9,39.9c0,22,17.9,39.9,39.9,39.9c22,0,39.9-17.9,39.9-39.9
			C256,133.6,238.1,115.7,216.1,115.7z M216.1,175.6c-11,0-20-8.9-20-20s8.9-20,20-20s20,8.9,20,20
			C236,166.6,227.1,175.6,216.1,175.6z"/>
	</g>
</g>
<g>
	<g>
		<path d="M276,285.3H136.3c-5.5,0-10,4.5-10,10s4.5,10,10,10H276c5.5,0,10-4.5,10-10S281.5,285.3,276,285.3z"/>
	</g>
</g>
<g>
	<g>
		<path d="M481.5,165.6h-35.9V29.9c0-16.5-13.4-29.9-29.9-29.9H30.5C14,0,0.6,13.4,0.6,29.9v285.3c0,16.5,13.4,29.9,29.9,29.9h55.9
			v64.4c0,3.8,2.1,7.2,5.5,8.9c1.4,0.7,2.9,1.1,4.5,1.1c2.1,0,4.2-0.7,6-2l43.9-32.7V421c0,16.5,13.4,29.9,29.9,29.9h182.6
			l70.4,58.8c1.8,1.5,4.1,2.3,6.4,2.3c1.4,0,2.9-0.3,4.2-0.9c3.5-1.6,5.8-5.2,5.8-9v-51.1h35.9c16.5,0,29.9-13.4,29.9-29.9V195.5
			C511.4,179,498,165.6,481.5,165.6z M106.4,389.7v-54.5c0-5.5-4.5-10-10-10H30.5c-5.5,0-10-4.5-10-10V29.9c0-5.5,4.5-10,10-10
			h385.1c5.5,0,10,4.5,10,10v285.3c0,5.5-4.5,10-10,10H196.1c-2.1,0-4.2,0.7-6,2L106.4,389.7z M491.4,421c0,5.5-4.5,10-10,10h-45.9
			c-5.5,0-10,4.5-10,10v39.8l-56.8-47.4c-1.8-1.5-4.1-2.3-6.4-2.3H176.2c-5.5,0-10-4.5-10-10v-51l33.2-24.8h216.2
			c16.5,0,29.9-13.4,29.9-29.9V185.5h35.9c5.5,0,10,4.5,10,10V421z"/>
	</g>
</g>
</svg>
