<?xml version="1.0" encoding="utf-8"?>
<!-- Generator: Adobe Illustrator 23.0.2, SVG Export Plug-In . SVG Version: 6.00 Build 0)  -->
<svg version="1.1" id="Layer_1" xmlns="http://www.w3.org/2000/svg" xmlns:xlink="http://www.w3.org/1999/xlink" x="0px" y="0px"
	 viewBox="0 0 512 512" style="enable-background:new 0 0 512 512;" xml:space="preserve">
<g>
	<g>
		<path d="M506.9,249.3l-29.5-17.2l-16.9-72.1c-4.5-19.2-21.4-32.6-41.1-32.6h-84.9V114c0-5.6-4.6-10.2-10.2-10.2H10.2
			C4.6,103.8,0,108.4,0,114v243.1c0,5.6,4.6,10.2,10.2,10.2H43c4.7,23.3,25.4,40.9,50.1,40.9s45.3-17.6,50.1-40.9h206.5v0
			c4.7,23.3,25.4,40.9,50.1,40.9s45.3-17.6,50.1-40.9h52.1c5.6,0,10.2-4.6,10.2-10.2v-99C512,254.5,510.1,251.2,506.9,249.3z
			 M93,387.8c-16.9,0-30.7-13.8-30.7-30.7s13.8-30.7,30.7-30.7c16.9,0,30.7,13.8,30.7,30.7S109.9,387.8,93,387.8z M314.1,310.3h-92
			c-5.6,0-10.2,4.6-10.2,10.2s4.6,10.2,10.2,10.2h92v16.2h-171C138.3,323.6,117.7,306,93,306S47.7,323.6,43,346.9H20.4v-52.8h293.7
			L314.1,310.3L314.1,310.3z M314.1,137.7v136.1H20.4V124.2h293.7V137.7z M393.7,147.9h25.7c10.2,0,18.9,6.9,21.2,16.8l14.9,63.9
			h-61.9L393.7,147.9L393.7,147.9z M399.6,387.8c-16.2,0-29.5-12.7-30.6-28.6c0.1-0.7,0.2-1.3,0.2-2s-0.1-1.4-0.2-2
			c1.1-16,14.4-28.6,30.6-28.6c16.9,0,30.7,13.8,30.7,30.7S416.5,387.8,399.6,387.8z M491.6,298.5h-19.4v-10.8h19.4V298.5z
			 M491.6,267.3H462c-5.6,0-10.2,4.6-10.2,10.2v31.2c0,5.6,4.6,10.2,10.2,10.2h29.6v28h-41.9c-4.7-23.3-25.4-40.9-50.1-40.9
			s-45.3,17.6-50.1,40.9h-15v-199h38.8v90.9c0,5.6,4.6,10.2,10.2,10.2h82.2l25.9,15L491.6,267.3L491.6,267.3z"/>
	</g>
</g>
<g>
	<g>
		<path d="M187.7,310.3h-8.6c-5.6,0-10.2,4.6-10.2,10.2s4.6,10.2,10.2,10.2h8.6c5.6,0,10.2-4.6,10.2-10.2S193.3,310.3,187.7,310.3z"
			/>
	</g>
</g>
</svg>
