<?xml version="1.0" encoding="utf-8"?>
<!-- Generator: Adobe Illustrator 23.0.2, SVG Export Plug-In . SVG Version: 6.00 Build 0)  -->
<svg version="1.1" id="Capa_1" xmlns="http://www.w3.org/2000/svg" xmlns:xlink="http://www.w3.org/1999/xlink" x="0px" y="0px"
	 viewBox="0 0 512 512" style="enable-background:new 0 0 512 512;" xml:space="preserve">
<g>
	<g>
		<path d="M256,146c-5.5,0-10,4.5-10,10s4.5,10,10,10c5.5,0,10-4.5,10-10S261.5,146,256,146z"/>
	</g>
</g>
<g>
	<g>
		<path d="M376,312c-39.9,0-70,17.2-70,40v120c0,22.8,30.1,40,70,40s70-17.2,70-40V352C446,329.2,415.9,312,376,312z M426,472
			c0,8.2-19.5,20-50,20s-50-11.8-50-20v-11.5c12.5,7.2,30,11.5,50,11.5s37.5-4.3,50-11.5V472z M426,432c0,8.2-19.5,20-50,20
			s-50-11.8-50-20v-11.5c12.5,7.2,30,11.5,50,11.5s37.5-4.3,50-11.5V432z M426,392c0,8.2-19.5,20-50,20s-50-11.8-50-20v-11.5
			c12.5,7.2,30,11.5,50,11.5s37.5-4.3,50-11.5V392z M376,372c-30.5,0-50-11.8-50-20s19.5-20,50-20s50,11.8,50,20S406.5,372,376,372z
			"/>
	</g>
</g>
<g>
	<g>
		<path d="M73,352c-35.9,0-73,15-73,40v80c0,25,37.1,40,73,40s73-15,73-40v-80C146,367,108.9,352,73,352z M126,472
			c0,7.9-22.8,20-53,20s-53-12.1-53-20v-12.2c14,7.9,33.7,12.2,53,12.2s39-4.3,53-12.2V472z M126,432c0,7.9-22.8,20-53,20
			s-53-12.1-53-20v-12.2c14,7.9,33.7,12.2,53,12.2s39-4.3,53-12.2V432z M73,412c-30.2,0-53-12.1-53-20s22.8-20,53-20s53,12.1,53,20
			S103.2,412,73,412z"/>
	</g>
</g>
<g>
	<g>
		<path d="M512,262.1c-3.5-63.7-32.2-123.7-80.7-169c-46-42.9-104.3-67.5-165.3-69.9V10c0-5.5-4.5-10-10-10s-10,4.5-10,10v13.2
			c-60.9,2.4-119.2,27-165.1,69.9c-48.5,45.3-77.1,105.3-80.6,169c-0.3,5.2,3.5,9.7,8.6,10.5c5.2,0.7,10-2.7,11.1-7.8
			c1.7-7.7,23.1-18.8,52.9-18.8c30.5,0,50,11.8,50,20c0,5.5,4.4,9.9,9.9,10c0,0,0.1,0,0.1,0c0,0,0,0,0,0c0,0,0,0,0,0
			c0.1,0,0.1,0,0.2,0c5.4,0,9.8-4.4,9.9-9.8c0-0.3,0-0.7,0-1c1.7-7.7,23.2-19.1,53-19.1c30.5,0,50,11.8,50,20v196
			c0,16.5-13.5,30-30,30c-8,0-15.5-3.1-21.2-8.8S186,470,186,462v-20c0-5.5-4.5-10-10-10s-10,4.5-10,10v20
			c0,13.4,5.2,25.9,14.6,35.4c9.4,9.4,22,14.6,35.4,14.6c27.6,0,50-22.4,50-50V266c0-8.2,19.5-20,50-20c30,0,51.6,11.4,53.2,19.1
			c0,0.3,0,0.7,0,1c0.1,5.5,4.5,9.9,10,9.9c0,0,0.1,0,0.1,0c0,0,0,0,0,0c0,0,0,0,0,0c0,0,0,0,0,0c0,0,0.1,0,0.1,0
			c5.5-0.1,9.8-4.5,9.8-10c0-8.2,19.5-20,50-20c29.7,0,51.2,11.2,52.9,18.8c1.1,5.1,6,8.5,11.1,7.8
			C508.5,271.9,512.3,267.3,512,262.1z M124.4,238.4c-12.6-7.7-30.7-12.4-51.5-12.4c-16.4,0-32.5,3-45.5,8.5c-1.4,0.6-2.7,1.2-4,1.8
			c15.9-88.9,84.9-161.5,171.9-185.2c-11.8,11.6-22.7,26.7-32.5,45C142,135.2,128.6,185,124.4,238.4z M316,226
			c-20,0-37.5,4.3-50,11.5V196c0-5.5-4.5-10-10-10s-10,4.5-10,10v41.5c-12.5-7.2-30-11.5-50-11.5c-18,0-37.2,3.9-51.5,11.3
			C153.3,136.3,196.3,53.9,246,44v73.7c0,5.5,4.5,10,10,10s10-4.5,10-10V44c49.8,9.9,92.9,92.2,101.7,193.4
			C353.4,229.9,334.1,226,316,226z M484.9,234.5c-13-5.5-29.2-8.5-45.6-8.5c-20.8,0-38.9,4.7-51.5,12.4
			c-4.3-53.4-17.7-103.1-38.5-142.2c-9.8-18.3-20.8-33.4-32.6-45.1c87.1,23.6,156.2,96.3,172.1,185.2
			C487.6,235.7,486.3,235.1,484.9,234.5z"/>
	</g>
</g>
</svg>
