<?xml version="1.0" encoding="utf-8"?>
<!-- Generator: Adobe Illustrator 23.0.2, SVG Export Plug-In . SVG Version: 6.00 Build 0)  -->
<svg version="1.1" id="Layer_1" xmlns="http://www.w3.org/2000/svg" xmlns:xlink="http://www.w3.org/1999/xlink" x="0px" y="0px"
	 viewBox="0 0 512 512" style="enable-background:new 0 0 512 512;" xml:space="preserve">
<g>
	<g>
		<path d="M511.9,138.3c0-0.7-0.3-1.4-0.4-2.1c-0.2-0.7-0.3-1.4-0.6-2c-0.1-0.1,0-0.2-0.1-0.4l-43.6-85.3c-1.8-3.6-5.5-5.8-9.5-5.8
			H225c-4,0-7.7,2.2-9.5,5.8l-43.6,85.3c-0.1,0.1,0,0.2-0.1,0.4c-0.3,0.6-0.4,1.3-0.6,2c-0.2,0.7-0.4,1.4-0.4,2.1
			c0,0.1-0.1,0.2-0.1,0.4V267c-19.4,1.1-36.3,5-46.6,7.8c-3.2-11.2-12.3-20.2-24.4-22.6l-86.9-17.4c-3.1-0.6-6.4,0.2-8.9,2.2
			c-2.5,2-3.9,5.1-3.9,8.3V416c0,5.9,4.8,10.7,10.7,10.7h66.8c13.2,0,24.4-8.4,29.2-20.1c23.9,11.4,134.3,62.8,181.3,62.8
			c41.4,0,126.5-41.9,182.9-69.6c14.7-7.2,26.9-13.2,34.8-16.7c3.9-1.7,6.4-5.5,6.4-9.8V138.7C512,138.5,511.9,138.4,511.9,138.3z
			 M103.9,285.1l-15.9,111c-0.7,5.2-5.3,9.2-10.6,9.2H21.3v-147l74.1,14.8C101,274.3,104.7,279.5,103.9,285.1z M451.2,64l32.7,64
			H403l-16-64H451.2z M317.7,64H365l16,64h-79.3L317.7,64z M298.7,149.3H384V192h-85.3V149.3z M231.5,64h64.2l-16,64h-80.9L231.5,64
			z M461.5,380.6C410.2,405.8,324.4,448,288,448c-38.8,0-140.7-45.4-176.7-62.9c0,0-0.1,0-0.1,0l12.6-87.9
			c7.8-2.4,31.5-9.1,57.6-9.1c15.8,0,27.9,5.9,43.3,13.3c13.8,6.7,29.5,14.2,50.6,18.5c46.4,9.4,66.1,19,66.1,32.2
			c0,2.6-0.8,4.2-2.8,5.7c-6.8,5.1-33.2,13.6-132.8-15.9c-5.7-1.6-11.6,1.6-13.3,7.2c-1.7,5.6,1.6,11.6,7.2,13.3
			c49.1,14.6,86.7,21.8,113.3,21.8c17.4,0,30.1-3.1,38.3-9.2c0.7-0.5,1.2-1.2,1.9-1.8c0.7-0.1,1.3,0,2-0.2
			C374,367.1,427.4,352,448,352c17.4,0,35.7,5.3,41.1,15.2C481.6,370.7,472.2,375.3,461.5,380.6z M490.7,340.7
			c-11-6.3-25.6-10-42.7-10c-20.8,0-64,11.6-85.9,17.9c-2.9-30.6-42.1-41.4-82.7-49.7c-18.5-3.8-32.3-10.4-45.6-16.8
			c-13.4-6.5-26.4-12.4-41.9-14.5V149.3h85.3v53.3c0,5.9,4.8,10.7,10.7,10.7h106.7c5.9,0,10.7-4.8,10.7-10.7v-53.3h85.3L490.7,340.7
			L490.7,340.7z"/>
	</g>
</g>
</svg>
