<?xml version="1.0" encoding="utf-8"?>
<!-- Generator: Adobe Illustrator 23.0.2, SVG Export Plug-In . SVG Version: 6.00 Build 0)  -->
<svg version="1.1" id="Слой_1" xmlns="http://www.w3.org/2000/svg" xmlns:xlink="http://www.w3.org/1999/xlink" x="0px" y="0px"
	 viewBox="0 0 512 512" style="enable-background:new 0 0 512 512;" xml:space="preserve">
<path d="M370,246c-5.5,0-10,4.5-10,10s4.5,10,10,10s10-4.5,10-10S375.5,246,370,246z"/>
<path d="M270,66H70c-5.5,0-10,4.5-10,10v100c0,5.5,4.5,10,10,10h200c5.5,0,10-4.5,10-10V76C280,70.5,275.5,66,270,66z M260,166H80
	V86h180V166z"/>
<path d="M230,146c5.5,0,10-4.5,10-10v-20c0-5.5-4.5-10-10-10s-10,4.5-10,10v20C220,141.5,224.5,146,230,146z"/>
<path d="M190,146c5.5,0,10-4.5,10-10v-20c0-5.5-4.5-10-10-10s-10,4.5-10,10v20C180,141.5,184.5,146,190,146z"/>
<path d="M482,66H340V50c0-27.6-22.4-50-50-50H50C22.4,0,0,22.4,0,50v412c0,27.6,22.4,50,50,50h240c27.6,0,50-22.4,50-50V326h142
	c16.5,0,30-13.5,30-30V96C512,79.5,498.5,66,482,66z M340,146h152v40H340V146z M492,96v30H340V86h142C487.5,86,492,90.5,492,96z
	 M320,462c0,16.5-13.5,30-30,30H50c-16.5,0-30-13.5-30-30V50c0-16.5,13.5-30,30-30h240c16.5,0,30,13.5,30,30V462z M482,306H340V206
	h152v90C492,301.5,487.5,306,482,306z"/>
<path d="M462,246h-52c-5.5,0-10,4.5-10,10s4.5,10,10,10h52c5.5,0,10-4.5,10-10S467.5,246,462,246z"/>
<path d="M110,226H70c-5.5,0-10,4.5-10,10v40c0,5.5,4.5,10,10,10h40c5.5,0,10-4.5,10-10v-40C120,230.5,115.5,226,110,226z M100,266
	H80v-20h20V266z"/>
<path d="M110,306H70c-5.5,0-10,4.5-10,10v40c0,5.5,4.5,10,10,10h40c5.5,0,10-4.5,10-10v-40C120,310.5,115.5,306,110,306z M100,346
	H80v-20h20V346z"/>
<path d="M110,386H70c-5.5,0-10,4.5-10,10v40c0,5.5,4.5,10,10,10h40c5.5,0,10-4.5,10-10v-40C120,390.5,115.5,386,110,386z M100,426
	H80v-20h20V426z"/>
<path d="M190,226h-40c-5.5,0-10,4.5-10,10v40c0,5.5,4.5,10,10,10h40c5.5,0,10-4.5,10-10v-40C200,230.5,195.5,226,190,226z M180,266
	h-20v-20h20V266z"/>
<path d="M190,306h-40c-5.5,0-10,4.5-10,10v40c0,5.5,4.5,10,10,10h40c5.5,0,10-4.5,10-10v-40C200,310.5,195.5,306,190,306z M180,346
	h-20v-20h20V346z"/>
<path d="M190,386h-40c-5.5,0-10,4.5-10,10v40c0,5.5,4.5,10,10,10h40c5.5,0,10-4.5,10-10v-40C200,390.5,195.5,386,190,386z M180,426
	h-20v-20h20V426z"/>
<path d="M270,226h-40c-5.5,0-10,4.5-10,10v40c0,5.5,4.5,10,10,10h40c5.5,0,10-4.5,10-10v-40C280,230.5,275.5,226,270,226z M260,266
	h-20v-20h20V266z"/>
<path d="M270,306h-40c-5.5,0-10,4.5-10,10v40c0,5.5,4.5,10,10,10h40c5.5,0,10-4.5,10-10v-40C280,310.5,275.5,306,270,306z M260,346
	h-20v-20h20V346z"/>
<path d="M270,386h-40c-5.5,0-10,4.5-10,10v40c0,5.5,4.5,10,10,10h40c5.5,0,10-4.5,10-10v-40C280,390.5,275.5,386,270,386z M260,426
	h-20v-20h20V426z"/>
</svg>
