<?xml version="1.0" encoding="utf-8"?>
<!-- Generator: Adobe Illustrator 23.0.2, SVG Export Plug-In . SVG Version: 6.00 Build 0)  -->
<svg version="1.1" id="Layer_1" xmlns="http://www.w3.org/2000/svg" xmlns:xlink="http://www.w3.org/1999/xlink" x="0px" y="0px"
	 viewBox="0 0 512 512" style="enable-background:new 0 0 512 512;" xml:space="preserve">
<g>
	<g>
		<path d="M508.8,92.8l-77.5-77.5c-2.1-2.1-4.8-3.2-7.7-3.2H88.4c-2.9,0-5.7,1.2-7.7,3.2L3.2,92.8c-3.7,3.7-4.3,9.4-1.4,13.7
			l162,246.7c-6.5,13.4-10.1,28.4-10.1,44.3c0,56.4,45.9,102.3,102.3,102.3S358.3,454,358.3,397.6c0-15.9-3.6-30.9-10.1-44.3
			l162-246.7C513.1,102.2,512.5,96.5,508.8,92.8z M92.9,34h326.1l55.6,55.6h-77.5c-0.1,0-0.2,0-0.2,0H115c-0.1,0-0.2,0-0.2,0H37.4
			L92.9,34z M376.9,111.5L256.2,295.3c-0.1,0-0.1,0-0.2,0c-0.1,0-0.1,0-0.2,0L135.1,111.5H376.9z M31.2,111.5h77.7l122.7,186.8
			c-21.9,5.4-41,17.8-54.9,34.8L31.2,111.5z M256,478c-44.3,0-80.4-36.1-80.4-80.4s36.1-80.4,80.4-80.4c44.3,0,80.4,36.1,80.4,80.4
			C336.4,441.9,300.3,478,256,478z M335.3,333.1c-13.8-17-33-29.4-54.9-34.8l122.7-186.8h77.7L335.3,333.1z"/>
	</g>
</g>
<g>
	<g>
		<path d="M259.7,357.5h-17.4c-6,0-10.9,4.9-10.9,10.9c0,6,4.9,10.9,10.9,10.9h6.4v59.2c0,6,4.9,10.9,10.9,10.9s10.9-4.9,10.9-10.9
			v-70.1C270.7,362.4,265.8,357.5,259.7,357.5z"/>
	</g>
</g>
</svg>
