<?xml version="1.0" encoding="utf-8"?>
<!-- Generator: Adobe Illustrator 23.0.2, SVG Export Plug-In . SVG Version: 6.00 Build 0)  -->
<svg version="1.1" id="Layer_1" xmlns="http://www.w3.org/2000/svg" xmlns:xlink="http://www.w3.org/1999/xlink" x="0px" y="0px"
	 viewBox="0 0 512 512" style="enable-background:new 0 0 512 512;" xml:space="preserve">
<g>
	<g>
		<path d="M498.7,89.4H183.2V77c0-18.3-14.9-33.2-33.2-33.2H98.5c-18.3,0-33.2,14.9-33.2,33.2v12.5h-52C5.9,89.4,0,95.4,0,102.7
			S5.9,116,13.3,116h52v12.5c0,18.3,14.9,33.2,33.2,33.2H150c18.3,0,33.2-14.9,33.2-33.2V116h315.6c7.3,0,13.3-5.9,13.3-13.3
			C512,95.4,506.1,89.4,498.7,89.4z M156.6,128.5c0,3.7-3,6.6-6.6,6.6H98.5c-3.7,0-6.6-3-6.6-6.6V77c0-3.7,3-6.6,6.6-6.6H150
			c3.7,0,6.6,3,6.6,6.6V128.5z"/>
	</g>
</g>
<g>
	<g>
		<path d="M498.7,237.3h-52v-12.5c0-18.3-14.9-33.2-33.2-33.2H362c-18.3,0-33.2,14.9-33.2,33.2v12.5H13.3c-7.3,0-13.3,5.9-13.3,13.3
			c0,7.3,5.9,13.3,13.3,13.3h315.6v12.5c0,18.3,14.9,33.2,33.2,33.2h51.5c18.3,0,33.2-14.9,33.2-33.2v-12.5h52
			c7.3,0,13.3-5.9,13.3-13.3C512,243.2,506.1,237.3,498.7,237.3z M420.2,276.3c0,3.7-3,6.6-6.6,6.6H362c-3.7,0-6.6-3-6.6-6.6v-51.5
			c0-3.7,3-6.6,6.6-6.6h51.5c3.7,0,6.6,3,6.6,6.6V276.3z"/>
	</g>
</g>
<g>
	<g>
		<path d="M498.7,396H276.4v-12.5c0-18.3-14.9-33.2-33.2-33.2h-51.5c-18.3,0-33.2,14.9-33.2,33.2V396H13.3C5.9,396,0,402,0,409.3
			c0,7.3,5.9,13.3,13.3,13.3h145.3V435c0,18.3,14.9,33.2,33.2,33.2h51.5c18.3,0,33.2-14.9,33.2-33.2v-12.5h222.3
			c7.3,0,13.3-5.9,13.3-13.3C512,402,506.1,396,498.7,396z M249.9,435c0,3.7-3,6.6-6.6,6.6h-51.5c-3.7,0-6.6-3-6.6-6.6v-51.5
			c0-3.7,3-6.6,6.6-6.6h51.5c3.7,0,6.6,3,6.6,6.6L249.9,435L249.9,435z"/>
	</g>
</g>
</svg>
