<svg xmlns="http://www.w3.org/2000/svg" viewBox="0 0 1837.12 2134"><title>s-why-5</title><g id="Слой_2" data-name="Слой 2"><g id="Слой_1-2" data-name="Слой 1"><path d="M1023.27,0c9.86,1.32,19.69,2.84,29.57,3.92,82.37,9,157.08,37.95,223.28,87.61Q1419.78,199.29,1454.34,376c5.53,28.19,7.45,56.78,7.46,85.49,0,90.32,1,180.65-.2,271-2.29,177.88-74.72,321.61-213.76,432.1l-8.32,6.64c1.6,2,2.75,3.94,4.35,5.38q52,46.86,104,93.67a18,18,0,0,0,11.59,4.67c130.87,9.75,244.9,59.52,343.07,145.85,48.41,42.57,86.69,93,111.17,153.15a310.91,310.91,0,0,1,23.4,118.79q-.24,198.46-.07,396.93c0,21.58-8.52,34.1-28.41,42.3a24.35,24.35,0,0,0-3.36,2.05H31.27a51.09,51.09,0,0,0-5-2.9C9.32,2123.5,1,2110.22.18,2091.89c-.13-3,0-6,0-9C.15,1955.6.52,1828.31,0,1701c-.28-69.46,19.18-132.59,57.05-190.38,39.41-60.14,91.28-107.42,151.56-145.8,66.23-42.18,138-70.59,215.45-83.79,18-3.07,36.35-4.35,54.57-6.12a17.28,17.28,0,0,0,10.71-4.4q53.07-47.88,106.25-95.63a42.41,42.41,0,0,0,3.52-4.14c-2.52-2.1-4.73-4.06-7.06-5.88Q432.57,1040.2,390.46,842.21c-7.7-35.92-11-72.38-11-109.15.1-94-1-187.95.44-281.9,1.75-119,44.25-222.42,126.07-308.84C575.84,68.54,661.8,24,761.93,7,775.36,4.69,789,3.84,802.59,2.2c4.25-.51,8.46-1.45,12.68-2.2ZM578,468.13c-2.37,3.2-4.41,5.79-6.26,8.5q-52.43,76.79-104.89,153.54a27.73,27.73,0,0,0-5.14,16.73c.18,30.33-.11,60.67.13,91a440.88,440.88,0,0,0,7.7,80.48c18.79,96.78,62.72,180.47,134.67,247.9,112.29,105.24,245.82,144.85,397.14,119,109.92-18.74,200.74-73.42,271.94-159.19,70.27-84.62,105.48-182.54,106.15-292.67.18-28.33-.09-56.67.12-85a25.6,25.6,0,0,0-4.73-15.78q-55.23-79.11-110.15-158.42c-1.44-2.07-3.29-3.85-5.27-6.14-8.66,6.74-16.68,13.19-24.9,19.37-77.18,58-165,86.67-260.44,94-52.69,4-105.18,2.52-157.48-5.56-85.88-13.26-162.94-46.36-230.33-101.5C583.76,472.37,581.1,470.47,578,468.13ZM474.26,1357.46c-12.93,1.65-25.18,2.69-37.23,4.84-80.52,14.32-153.15,46.79-218.18,96.18C176.22,1490.85,140,1529.15,114,1576.39c-19.74,35.9-31.31,74.09-31.31,115.39q0,174.43,0,348.87c0,3.24.3,6.49.5,10.56,4.27.23,7.84.59,11.41.59q295.4,0,590.79,0c10.7,0,10.8,0,13.22-10.3q25.27-107.4,50.3-214.85a29.17,29.17,0,0,0-.79-14.56c-9.24-29.89-18.93-59.64-28.52-89.42-.88-2.73-2.14-5.32-3.54-8.75l-28.42,14c-7.62,3.76-15.54,5.78-24.12,4.6-16.72-2.29-27.61-11.66-34.38-26.93q-60.74-137-121.77-273.79C496.6,1407.5,485.74,1383.19,474.26,1357.46Zm1280.29,693.8c.22-4.73.53-8.31.53-11.9q0-173,0-345.92a226,226,0,0,0-10.77-68.82c-16.21-50.78-45.68-93.16-83.6-129.72-73.26-70.62-160.56-114.31-260.55-132.67-12-2.2-24.26-3.14-36.58-4.7-2.29,4.85-4.21,8.7-6,12.63-49.55,111.34-99.4,222.55-148.36,334.15-10.7,24.37-37.25,36.69-62.51,22.17-7.14-4.11-14.79-7.33-22.61-11.16a53.63,53.63,0,0,0-3,5.9c-10.82,31.13-21.7,62.24-32.18,93.48a24.57,24.57,0,0,0-.22,12.52q21.45,95.47,43.29,190.87c2.5,11,5.1,21.89,7.72,33.17ZM461.81,486.14l2.58.91c2.11-2.88,4.32-5.7,6.33-8.65q32.71-47.88,65.36-95.79c10.24-15,24.43-21,42.32-18.42,10.45,1.5,18.22,7.5,25.41,14.77,30.66,31.05,65,57.17,103.92,77.12,54,27.68,111.87,40.66,172,43.91,43,2.33,85.9,1.38,128.61-5.33,67.85-10.67,129.56-35.56,183.45-78.48,15.34-12.23,29.53-25.93,44-39.27,6.78-6.26,14-11.34,23.26-12.7,18.32-2.7,32.49,3.82,43,19.07q34.6,50.21,69.54,100.19c1.78,2.57,3.84,4.94,6.79,8.69a44,44,0,0,0,1.09-5.52c.93-38.08-1-75.88-9.79-113.18-38.59-163.64-184-285.46-356.19-289.61-61-1.47-122-.66-183-.15a330.48,330.48,0,0,0-53.69,4.54C669,107,584.42,162,523.66,252.8,482.75,313.93,463,382,461.83,455.44,461.67,465.67,461.81,475.9,461.81,486.14ZM859.75,1549.67c-67.14-107.42-133.58-213.74-200.57-320.94l-108.52,97.52c46.13,103.68,91.68,206,137.65,309.33Zm289,85.61c1.92-3.59,3.31-5.83,4.37-8.21q65.17-146.41,130.28-292.86c3.51-7.88,3.5-8-2.66-13.53q-47.89-43.12-95.9-86.15c-1.9-1.7-4.11-3.07-6.86-5.1-66.78,106.88-133.26,213.09-200,320.26ZM1055,2051.2l-43.63-191.37H825.88L781.06,2051.2Zm-6.22-373.27c-3.78-2.07-6.59-3.74-9.51-5.2-37.23-18.65-74.55-37.14-111.66-56-6.28-3.19-11.27-3.29-17.63,0-36.49,18.61-73.22,36.76-109.86,55.1-2.63,1.31-5.13,2.88-8.64,4.87q16.1,50.08,31.87,99.14H1015ZM775.64,1256.11c3.2,9.9,137.49,224.41,144.26,230.54,47.62-76.11,95.12-152.05,141.87-229.1C966.11,1281.78,871.08,1281.71,775.64,1256.11Z"/><path d="M919.81,1061.67c-39.53-.21-76-8.12-110.62-24.11-12.92-6-21.16-15.67-24.25-29.73-6.34-28.76,20.21-55.22,48.88-48.53a59.25,59.25,0,0,1,10.34,3.61c49.29,21.75,98.64,21.71,148.07.53,7.45-3.19,15-5.15,23.26-3.88,18.59,2.85,32.66,15.85,35.47,33,3.23,19.66-5.28,36.8-23.27,45.24A255.18,255.18,0,0,1,919.81,1061.67Z"/><path d="M709.92,750c-23.15-.2-40.7-18.31-40.42-41.72.28-23,18.65-40.61,42-40.2,22.59.39,40,18.43,39.92,41.26C751.27,732.59,733.28,750.22,709.92,750Z"/><path d="M1127,750a41,41,0,1,1,41.5-41A40.85,40.85,0,0,1,1127,750Z"/><path d="M1377.4,1941.92c-28.29,0-56.58.18-84.86-.06a40.12,40.12,0,0,1-38.09-28.49,41.49,41.49,0,0,1,14.84-45.43c7.79-5.78,16.55-8,26.21-7.94,37.27.15,74.54.06,111.81.06,18,0,35.94-.2,53.91.07,20.23.3,37,14.86,39.74,33.9,3,21.51-8.73,40.65-28.91,46.37a51.67,51.67,0,0,1-13.79,1.48c-27,.13-53.91.06-80.86.06Z"/><path d="M1624.22,1941.93a40.63,40.63,0,0,1-40.54-41.74c.39-22.9,18.87-40.48,42.2-40.11,22.61.36,40,18.35,39.88,41.28C1665.64,1924.55,1647.64,1942.13,1624.22,1941.93Z"/></g></g></svg>