<?xml version="1.0" encoding="utf-8"?>
<!-- Generator: Adobe Illustrator 23.0.2, SVG Export Plug-In . SVG Version: 6.00 Build 0)  -->
<svg version="1.1" id="Слой_1" xmlns="http://www.w3.org/2000/svg" xmlns:xlink="http://www.w3.org/1999/xlink" x="0px" y="0px"
	 viewBox="0 0 1788 1775" style="enable-background:new 0 0 1788 1775;" xml:space="preserve">
<style type="text/css">
	.st0{fill:#DB1E32;}
</style>
<title>s-why-1</title>
<g>
	<g id="Слой_1-2">
		<path class="st0" d="M0,1698c0.4-4.4,1-8.8,1.1-13.2c1.2-43.3,2.3-86.5,3.4-129.8c0.6-23.5,1.3-46.9,2-70.4c1-37.1,2-74.2,3-111.3
			c0.7-23.5,1.3-46.9,2-70.4c1-37.1,2-74.2,3-111.3c0.5-18.3,1.2-36.6,1.6-54.9c0.3-18.5,15.5-33.3,34-33c0.4,0,0.8,0,1.2,0
			c20.3,0.8,40.6,1.2,60.9,1.8c41.6,1.2,83.2,2.5,124.8,3.7c22,0.6,44,1,65.9,1.6c5.6,0.2,11.4,0,16.9,1.1c15.6,3,26.2,16.1,26.1,32
			c-0.1,15.3-0.7,30.6-1,46c-0.1,3.3,0,6.6,0,10.7c2.2-1,4-1.8,5.7-2.7c42.2-21.6,87.6-35.8,134.6-42.2
			c91.4-12.4,178.2,2.6,260.3,45c23.8,12.3,47.5,24.8,73.6,31.8c25.3,6.8,51,8.9,77.1,9.4c37.1,0.6,74.2,1.9,111.4,2.9
			c23.5,0.7,47,1.1,70.4,2c22.4,0.9,45.1,0.7,67.2,3.8c58.7,8.4,105.6,37.7,140.7,85.4c5.4,7.3,10,15.3,15.3,23.4
			c10.5-5,21.1-10,31.8-15c77.9-36.8,155.7-73.8,233.7-110.4c63.5-29.8,140.1-16.2,189.1,33.7c9.8,10,17.7,22,25.9,33.5
			c2.9,4.1,4.2,9.3,6.3,14v11c-3.5,11.3-10.7,19.1-20.7,25.6c-186,120.1-371.9,240.3-557.8,360.6c-18,11.6-35.7,23.6-56.1,31.3
			c-40.8,15.5-82.7,25.9-126.3,29.4c-6.7,0.6-13.5,1.3-20.2,2h-35c-1.8-0.3-3.5-0.8-5.3-1c-21.1-2.6-42.5-4-63.2-8.2
			c-22.6-4.6-44.6-11.7-66.9-18c-113.9-32-227.8-64-341.7-96.1c-31.2-8.9-61.5-8.9-90.8,5.7c-23.6,11.8-46.8,24.7-70,37.4
			c-1.7,0.9-3.1,3.8-3.2,5.9c-0.5,7.1-0.3,14.3-0.5,21.5c-0.6,19.9-14.5,34.4-33.6,34.2c-21.6-0.3-43.3-1-64.9-1.7
			c-41.1-1.2-82.2-2.4-123.3-3.7c-25.8-0.8-51.6-1.3-77.4-2.2c-13.2-0.5-24.7-9-29.2-21.5c-0.7-1.8-1.5-3.6-2.2-5.4V1698z
			 M1256.3,1430c0-0.7,0-1.3,0-2c-0.1-1-0.3-2-0.6-2.9c-14.4-52.1-47.1-86.9-98.2-104.5c-21.2-7.3-43.3-6.7-65.2-7.5
			c-23.3-0.9-46.6-1.4-69.9-2c-40.3-1.1-80.6-2.3-120.8-3.2c-27.7-0.6-55.2-1.8-82.4-7.6c-35.2-7.4-67.7-21.6-99.2-38.5
			c-70.9-38-146.2-51.6-226-40.8c-50.4,6.9-97.3,24.2-140.7,50.7c-6.9,4.2-13,8-11.1,17.5c0.2,1.1-0.3,2.3-0.3,3.5
			c-1,36.4-2,72.9-3,109.4c-1,36.1-2,72.2-3,108.4c-0.9,34.1-1.7,68.3-2.5,102.4c0,2,0,4.1,0,6.8c2.3-1.1,4-1.8,5.5-2.6
			c9.8-5.3,19.6-10.6,29.5-15.8c43-22.5,88.2-28.4,135-15.4c123.8,34.3,247.5,69,371.1,104.2c30.8,8.7,61.6,16.6,93.8,18.1
			c46.2,2.1,91.4-2.9,135.4-17.4c15-4.9,30.7-9.4,43.7-17.8c184.9-118.9,369.5-238.2,553.9-357.8c1.5-1,2.9-2.1,5.4-3.8
			c-1.7-1.2-3-2-4.1-2.9c-33.8-26.3-70.5-31.6-109.6-13.7c-45.7,21-90.9,42.8-136.3,64.3c-43.2,20.4-86.3,40.8-129.5,61.2
			c-3,1.4-4.3,2.6-3.9,6.6c1.5,12.7,2.3,25.5,2.4,38.3c-0.1,19.2-14.5,32.9-33.6,32.6c-18.8-0.3-37.6-1.1-56.4-1.7
			c-37.3-1-74.6-2-111.8-3c-23.3-0.6-46.6-1.3-69.9-2c-41-1.1-81.9-2.2-122.9-3.2c-12.8-0.3-25.7-0.1-38.4-1.3
			c-17.4-1.8-29.6-17.5-28.5-35.2c1-17.3,15.6-30.7,33-30.3c24.8,0.4,49.6,1.2,74.4,1.9l72.9,2c37.4,1,74.9,2,112.4,3
			c23.1,0.6,46.3,1.4,69.4,1.9C1236.2,1430.2,1246.2,1430,1256.3,1430z M264.9,1688.2c0.1-1.3,0.3-2.7,0.3-4.2
			c0.6-18.5,1.2-36.9,1.7-55.4c1-37.4,2-74.9,3-112.3c0.5-19.1,0.8-38.3,1.4-57.4c1.2-41.1,2.5-82.2,3.6-123.3c0.6-22,1-44,1.6-65.9
			c0.8-29.6,1.7-59.3,2.7-88.9c0.1-3.8-1.2-4.9-4.8-5c-34.6-0.8-69.2-1.8-103.8-2.8c-23.1-0.6-46.3-1.3-69.4-2
			c-6.4-0.2-12.8,0-19.4,0c-0.3,2.2-0.7,4-0.7,5.8c-1,36.9-2,73.9-3,110.8c-0.7,23.6-1.3,47.3-2,70.9c-1,37-2,73.9-3,110.9
			c-0.7,23.6-1.4,47.3-2,70.9c-1.2,45.8-2.3,91.6-3.6,137.3c-0.2,5,1.3,6.5,6.3,6.6c21.6,0.3,43.3,1.1,64.9,1.7
			c29.8,0.8,59.6,1.6,89.4,2.2C240.1,1688.4,252.3,1688.2,264.9,1688.2z"/>
		<path class="st0" d="M1095,0c6.4,1,12.7,1.9,19.1,2.9c27.5,4.3,53.9,14.2,77.5,29.1c25.7,16,53.7,22.3,83.8,21.1
			c59.9-2.5,111.3,17.5,154.2,59.4c13.4,13.3,24.7,28.6,33.3,45.3c13.7,26.1,34,45.1,60.3,58.3c58,29.3,94.6,75.5,107,139.7
			c2.7,13.7,3,28.1,2.6,42.2c-0.9,28.7,5.3,55.2,21.4,79c23.7,34.9,35,73.4,33.4,115.4c-1.2,35.3-12.4,69.6-32.5,98.7
			c-17.2,25.4-23.8,53.2-22,83.7c1.7,29.2-4.5,57.3-16.8,83.9c-19.1,41.2-48.8,72.6-89.4,92.8c-29,14.4-50.3,35.3-66.1,63.5
			c-30.8,54.9-78.4,86.9-140,98.9c-16.3,3.2-32.8,3.5-49.3,2.8c-29.5-1.2-56.5,6.3-81.6,21.9c-35.5,22-74.3,32.1-116,30.7
			c-35.8-1.2-69.3-10.9-99.7-29.9c-26.7-16.7-55.5-24-86.9-22.8c-58.7,2.4-109.5-16.8-152.1-57.3c-13-12.4-24.3-26.3-32.4-42.3
			c-15.3-30.1-38.7-50.9-68.6-66.5c-57.6-30-92.1-77.9-102.7-142.1c-2.2-13.2-1.8-26.8-1.6-40.3c0.5-27.3-5.8-52.5-21.2-75.1
			c-17.6-25.9-28.9-54.3-32.5-85.5c-5.3-46.2,4.5-89.1,30.5-127.9c16-23.9,24.5-49.8,23-78.5c-2.9-57.7,16.3-106.8,56.7-147.7
			c14.1-14.5,30.6-26.5,48.8-35.2c29.2-13.8,50.5-35,66.3-63.2c31.8-56.7,81.1-89.6,145.2-99.9c13.7-2.2,27.8-2.5,41.7-2.1
			c29.6,0.9,57.2-5.3,82.4-21C999.8,14.2,1031,3.6,1064.8,1c1.1-0.2,2.2-0.6,3.2-1H1095z M1567.7,401.9c-0.6-10.5-0.2-21.1-2-31.3
			c-7.5-43-31.2-74.6-70-94c-40.2-20.1-70.5-49.6-92.3-88.9c-24.5-44.2-63.9-65.9-113.9-68.7c-10.3-0.6-20.6,0.3-30.9,0
			c-37-0.8-70.7-12-102.4-30.9c-50-29.7-100.1-29.1-150.4,0.2c-13.4,7.7-27.3,14.4-41.7,19.9c-21.1,8.3-43.5,10.9-66.1,11.3
			c-11.6,0.2-23.4-1-34.9,0.4c-47.2,5.6-82.8,29-105.6,71.1c-20,36.9-48.7,64.8-86.2,83.4c-50.5,25.1-75.7,65.5-75.4,122
			c0.1,12.1,0.2,24.4-1.3,36.4c-3.8,30.4-14.9,58.1-32.2,83.5c-13.7,19.9-21.1,43.5-21.1,67.6c-0.3,25,7.1,49.5,21.3,70.1
			c21.3,31.4,32.8,66,33.6,103.9c0.2,11.5-1,23.1,0.3,34.5c5.4,46,29.4,79.9,70.4,100.6c40.2,20.3,70.3,49.6,92.6,88.7
			c27.6,48.5,70.9,70.6,126.5,69.4c14.1-0.4,28.3,0.2,42.3,1.8c29.3,3.6,56.1,14.7,81.2,30.3c18.9,11.8,40.4,18.6,62.7,19.8
			c31.4,2,60.1-6.1,86.9-22.8c31.2-19.5,65.5-28.9,102.3-29.8c15.1-0.4,30.4,0.8,45.3-1.5c44.1-6.7,77.3-29.9,98.7-69.3
			c20.7-38.1,50.7-66,89.3-85.7c47.3-24.2,72.5-63.1,72.9-117c0.1-13.8-0.2-27.7,1.5-41.4c3.8-30.4,15.6-57.9,32.7-83.3
			c27.1-40.3,27.2-94.4,0.1-134.7C1577.9,482.5,1565.6,444.3,1567.7,401.9L1567.7,401.9z"/>
		<path class="st0" d="M1312,272.3c-1.3,3.2-2.9,10-6.3,15.6c-53.1,85.4-106.3,170.8-159.6,256c-77.7,124.4-155.3,248.8-233,373.3
			c-8.7,13.9-23.8,19.9-38.7,15.2c-14.5-4.5-24.3-18.1-22.9-33.6c0.8-6.4,3-12.5,6.4-18c47-75.7,94.1-151.3,141.4-226.8
			c83.4-133.6,166.8-267.2,250.2-400.8c11.9-19.1,34.6-23.3,50.9-9.5C1308.1,250.2,1311.6,258.8,1312,272.3z"/>
		<path class="st0" d="M755.6,419.1c0.7-52.5,17.8-98.2,57.8-133.5c26.8-23.7,58.5-35.5,94.4-33.9c38.2,1.8,69.8,18.2,95.4,46.2
			c27.3,29.8,41.7,65.4,44.8,105.5c3.8,48.5-8.4,92.5-39.3,130.4c-24,29.4-54.9,47.9-93.1,51.8c-39.8,4.1-74.6-8.4-104.2-35
			c-31.2-28.2-48.3-63.8-54.3-105.1c-0.6-4.4-1.2-8.9-1.5-13.4S755.6,423.4,755.6,419.1z M821.3,418c0.4,30.6,9,57.2,29.6,79.3
			c27.9,29.8,71.2,30.6,100.1,1.8c20.5-20.4,30-45.6,31.3-74c1.4-30.6-6.4-58.5-27-81.8c-29.3-33.1-73-34.3-103.8-3
			C830.2,361.9,821.8,388.9,821.3,418z"/>
		<path class="st0" d="M1113.9,754.3c1-50.8,15.3-92.7,48.3-127.1c28.2-29.5,62.9-45.3,104-43.5c44.3,1.9,79.1,22.8,105.5,57.6
			c27.7,36.5,38.7,78.3,35.3,123.9c-3,40.9-17.5,77-45.3,107.3c-23.5,25.6-52.4,41.5-87.2,45.1c-37.9,3.9-71.5-7.3-100.4-31.8
			c-33.2-28.1-51.6-64.6-57.9-107.4C1114.8,769.3,1114.4,760,1113.9,754.3z M1341.7,748c-0.6-5.1-1-13.5-2.7-21.6
			c-5.6-27.1-18-50-41.7-65.6c-13.8-9.1-29.2-12.9-45.7-10.3c-22.7,3.5-39.4,16.3-52,34.8c-15.2,22.5-21,47.5-19.1,74.5
			c1.8,25.5,10.2,48.4,27.4,67.6c28.8,32.2,72.5,33.5,102.9,2.8C1332.5,808.3,1340.9,781.2,1341.7,748z"/>
	</g>
</g>
</svg>
