<?xml version="1.0" encoding="utf-8"?>
<!-- Generator: Adobe Illustrator 23.0.2, SVG Export Plug-In . SVG Version: 6.00 Build 0)  -->
<svg version="1.1" id="Слой_1" xmlns="http://www.w3.org/2000/svg" xmlns:xlink="http://www.w3.org/1999/xlink" x="0px" y="0px"
	 viewBox="0 0 1250 2133.8" style="enable-background:new 0 0 1250 2133.8;" xml:space="preserve">
<style type="text/css">
	.st0{fill:#DB1E32;}
</style>
<title>s-why-3</title>
<g>
	<g id="Слой_1-2">
		<path class="st0" d="M0,135V36c0.4-0.7,0.7-1.4,1-2.2C5.1,16,16,5.1,33.8,1c0.8-0.3,1.5-0.6,2.2-1h1178c0.4,0.3,0.8,0.6,1.2,0.8
			c23.4,6,34.6,20.4,34.6,44.6c0,26.5,0.6,53-0.1,79.5c-1.4,53.5-26.9,91.9-75.2,114.6c-6.1,2.9-8.1,5.6-8.1,12.2
			c0.1,80.1,0,160.3-0.4,240.5c-0.2,38.6-5.2,76.7-13,114.4c-16.7,81.6-49.2,159.1-95.6,228.2c-53.6,79.9-121.8,144.8-203.8,195.1
			c-27.8,17-27.8,57.1,0,74.1c84.7,52,154.7,119.2,208.7,202.6c68.2,105.4,103,220.9,104.2,346.6c0.8,77.5,0.2,155,0.1,232.5
			c0,3.5,0.5,5.6,4.3,7.2c48.6,19.6,79,64.8,79,117.2v79c0,27.4-17.3,44.7-44.5,44.7H42.9c-21.2,0-37.3-13-41.9-33.6
			c-0.3-0.8-0.6-1.5-1-2.2v-99c0.5-2.6,1-5.2,1.4-7.7c8.2-47,34.2-79.9,78.2-98.6c2.9-1.2,4-2.7,4-5.8c-0.2-11-0.1-22-0.1-33
			c0.2-70.8,0.1-141.6,0.6-212.4c0.3-40.2,5.6-80,14.1-119.3c17.1-79.9,49.3-155.9,95-223.7c53.5-79.6,121.5-144.1,203.1-194.3
			c4-2.4,7.6-5.4,10.6-8.9c15.6-18.3,13.3-45.8-5-61.4c-1.8-1.5-3.6-2.8-5.6-4c-48.4-29.6-92.7-65.2-132-106.1
			c-66.2-69.1-114.9-148.9-146-239.3c-22.8-66.2-34.6-135.7-34.8-205.7c-0.3-76.8-0.1-153.6,0-230.4c0-3.6-0.8-5.5-4.4-7.1
			c-39.3-16.5-64.6-45.3-75.3-86.6C2.2,148.1,1.3,141.5,0,135z M1083.4,1883.8v-5.8c0-73.5,0-147,0-220.5c0-29.8-2.3-59.6-7-89
			c-12.5-79.9-42.4-156-87.5-223.1c-47-70.2-107.2-126.5-179.1-170.7c-35.9-22.1-56.2-54.9-59.2-96.7
			c-3.7-51.5,16.5-92.2,60.9-119.7c43.3-26.8,83-58.1,117.8-95.3c101.5-108.6,152.9-237.3,154.1-386c0.6-73.7,0.1-147.3,0.1-221
			c0-1.9-0.2-3.8-0.3-5.8H166.6v6.6c0,70,0,140,0,210c-0.1,33.4,1.9,66.5,7.2,99.5c8.5,53.8,25,106,48.9,155
			c49.1,100.5,122.1,179.1,217.1,237.6c80.8,49.7,80.8,166.5-0.1,216.2c-43.7,26.8-83.7,58.3-118.7,95.7
			c-101.5,108.6-153,237.2-154.3,385.9c-0.6,73.8-0.1,147.7-0.1,221.5c0,1.8,0.2,3.6,0.3,5.6H1083.4z M625,83.1H94
			c-1.5,0.1-3,0.1-4.5,0c-4.9-0.7-6.8,1-6.6,6.3c0.4,11.3,0,22.7,0.2,34c0,3.8,0.5,7.6,1.3,11.4c4.8,20.1,21.6,32.4,44.1,32.4
			c330.8,0,661.6,0,992.5,0c1.7,0,3.3,0,5-0.1c20-1,37.8-15.4,39.8-34.3c1.7-15.3,0.9-30.9,1-46.4c0-1.1-2-2.6-3.3-3.1
			c-1.7-0.5-3.6-0.2-5.5-0.2L625,83.1z M625,2050.9h505c10.7,0,21.3-0.1,32,0.1c3.6,0.1,5.1-0.9,5-4.7c-0.2-12.3,0.1-24.7-0.2-37
			c-0.1-4.5-0.9-8.9-2.2-13.2c-5.8-18.3-22-29.1-43.1-29.1h-993c-1.3,0-2.7,0-4,0c-21.5,0.8-38.8,16.1-40.7,37.3
			c-1.2,12.9-0.6,26-0.7,38.9c-0.1,7.7,0,7.7,7.9,7.7L625,2050.9z"/>
		<path class="st0" d="M583.4,1036.8c0-33.5,0.1-67-0.1-100.5c-0.1-3.1-1.2-6-3.1-8.4c-14.3-16.9-31.3-31.5-50.3-43
			C452.2,837,385,777.4,331.8,702.8c-32.8-46.1-58.3-95.7-72.1-150.9c-6.3-24.7-9.5-50.1-9.5-75.6c0-25,0-50,0-75
			c0-16.5,6.9-29.5,21.5-37.4c14.3-7.8,28.9-7.1,42.7,1.5c59.9,37.3,126,63.6,195.1,77.5c45.9,9.4,92.8,13.1,139.6,11
			c102.9-4.6,198.1-34,285.8-88.1c14.2-8.8,28.9-9.8,43.6-1.7s21.3,21,21.2,37.6c0,28.7,0.7,57.4-0.3,86
			c-1.7,49.1-15.7,95.3-36.8,139.4c-26,54.5-61.3,102.5-102.9,146c-42.4,44.3-90.2,81.9-142.5,113.8c-18.4,11.2-34.1,25.5-48,41.8
			c-1.7,2.4-2.6,5.2-2.6,8.1c-0.1,66.7-0.2,133.3-0.1,200c0,19.8-12.1,36.2-30.2,41.1c-22,6.3-45-6.4-51.3-28.4
			c-1.1-3.8-1.6-7.7-1.6-11.7C583.3,1104.1,583.4,1070.4,583.4,1036.8z M333.1,471.3c0,2.2,0,3.8,0,5.5c0.2,18.8,2.7,37.5,7.3,55.8
			c11,43.5,31.1,82.7,56.8,119.2c43.7,62.1,99,112.2,162.5,153.4c20.5,13.3,41.6,25.8,59.4,42.9c2,1.9,4.1,3.7,6.3,5.7
			c16.8-16.3,35.1-29.7,54.6-41.8c71.9-44.8,133.2-100.8,180-171.8c31.4-47.6,53.9-98.6,56.8-156.6c0.2-4,0-8.1,0-12.1
			C721.9,559.5,527.9,559.5,333.1,471.3z"/>
		<path class="st0" d="M625,1800.6c-109.3,0-218.7,0-328-0.1c-6.2,0-12.8-0.5-18.7-2.5c-16.8-5.7-26.9-18-27.8-35.4
			c-1.4-25.4-0.6-50.9,6.1-75.9c9.3-34.9,29.6-61.7,59.1-82.1c24.5-17,51.6-28.9,79-40.4c46.2-19.4,92.1-39.3,135.3-65.1
			c23.3-13.7,43.8-31.8,60.3-53.2c19.1-24.8,50.5-24.7,69.5,0.2c19.4,25.5,44.3,44.4,72.1,59.9c38.5,21.4,78.6,39.1,119.1,56.2
			c27.6,11.6,55.1,23.5,80.2,40.2c39.3,26.1,62.3,62.3,66.8,109.4c1.8,18.4,2.1,36.8,0.7,55.3c-1.4,17.8-18.3,31.8-36.2,33.1
			c-4.6,0.3-9.3,0.5-14,0.5C840.6,1800.6,732.8,1800.6,625,1800.6z M335,1716.9h579.9c-2.7-19.2-12.3-33.9-28-43.8
			c-13.7-8.6-27.9-16.3-42.5-23c-40-18.5-80.7-35.6-120.5-54.5c-28.1-13.3-55.4-28.5-79.9-48c-6.5-5.2-12.7-10.6-18.9-15.8
			c-0.5,0.1-0.7,0.1-0.8,0.2c-3.7,3.1-7.3,6.3-11,9.4c-26.9,23-57.6,40.3-89.3,55.4c-36.8,17.6-74.3,33.4-111.5,50.1
			c-18.8,8.5-37.9,16.6-54.2,29.5C345.3,1686.7,337.5,1700,335,1716.9L335,1716.9z"/>
		<path class="st0" d="M625,1345.9c-22.9-0.1-41.3-18.7-41.2-41.6c0.1-22.9,18.7-41.3,41.6-41.2c22.8,0.1,41.2,18.6,41.2,41.3
			c0.1,22.8-18.3,41.3-41,41.4C625.4,1345.9,625.2,1345.9,625,1345.9z"/>
	</g>
</g>
</svg>
