<?xml version="1.0" encoding="utf-8"?>
<!-- Generator: Adobe Illustrator 23.0.2, SVG Export Plug-In . SVG Version: 6.00 Build 0)  -->
<svg version="1.1" id="Слой_1" xmlns="http://www.w3.org/2000/svg" xmlns:xlink="http://www.w3.org/1999/xlink" x="0px" y="0px"
	 viewBox="0 0 1837.1 2134" style="enable-background:new 0 0 1837.1 2134;" xml:space="preserve">
<style type="text/css">
	.st0{fill:#DB1E32;}
</style>
<title>s-why-5</title>
<g>
	<g id="Слой_1-2">
		<path class="st0" d="M1023.3,0c9.9,1.3,19.7,2.8,29.6,3.9c82.4,9,157.1,38,223.3,87.6c95.8,71.8,155.2,166.7,178.2,284.5
			c5.5,28.2,7.4,56.8,7.5,85.5c0,90.3,1,180.7-0.2,271c-2.3,177.9-74.7,321.6-213.8,432.1l-8.3,6.6c1.6,2,2.8,3.9,4.3,5.4
			c34.7,31.2,69.3,62.5,104,93.7c3.2,2.9,7.3,4.5,11.6,4.7c130.9,9.8,244.9,59.5,343.1,145.8c48.4,42.6,86.7,93,111.2,153.2
			c15.5,37.7,23.5,78,23.4,118.8c-0.2,132.3-0.2,264.6-0.1,396.9c0,21.6-8.5,34.1-28.4,42.3c-1.2,0.6-2.3,1.3-3.4,2.1H31.3
			c-1.6-1.1-3.3-2-5-2.9c-17-7.6-25.3-20.9-26.1-39.2c-0.1-3,0-6,0-9c0-127.3,0.3-254.6-0.2-381.9c-0.3-69.5,19.2-132.6,57-190.4
			c39.4-60.1,91.3-107.4,151.6-145.8c66.2-42.2,138-70.6,215.4-83.8c18-3.1,36.4-4.3,54.6-6.1c4-0.2,7.8-1.7,10.7-4.4
			c35.4-31.9,70.8-63.8,106.2-95.6c1.3-1.3,2.4-2.7,3.5-4.1c-2.5-2.1-4.7-4.1-7.1-5.9c-106.3-83.1-173.5-190.7-201.6-322.6
			c-7.7-35.9-11-72.4-11-109.2c0.1-94-1-188,0.4-281.9c1.8-119,44.3-222.4,126.1-308.8C575.8,68.5,661.8,24,761.9,7
			c13.4-2.3,27.1-3.2,40.7-4.8c4.3-0.5,8.5-1.5,12.7-2.2H1023.3z M578,468.1c-2.4,3.2-4.4,5.8-6.3,8.5
			c-35,51.2-69.9,102.4-104.9,153.5c-3.5,4.9-5.3,10.7-5.1,16.7c0.2,30.3-0.1,60.7,0.1,91c0.1,27,2.7,53.9,7.7,80.5
			c18.8,96.8,62.7,180.5,134.7,247.9c112.3,105.2,245.8,144.8,397.1,119c109.9-18.7,200.7-73.4,271.9-159.2
			c70.3-84.6,105.5-182.5,106.2-292.7c0.2-28.3-0.1-56.7,0.1-85c0.2-5.6-1.5-11.2-4.7-15.8c-36.8-52.7-73.5-105.5-110.2-158.4
			c-1.4-2.1-3.3-3.9-5.3-6.1c-8.7,6.7-16.7,13.2-24.9,19.4c-77.2,58-165,86.7-260.4,94c-52.7,4-105.2,2.5-157.5-5.6
			c-85.9-13.3-162.9-46.4-230.3-101.5C583.8,472.4,581.1,470.5,578,468.1z M474.3,1357.5c-12.9,1.7-25.2,2.7-37.2,4.8
			c-80.5,14.3-153.1,46.8-218.2,96.2c-42.6,32.4-78.9,70.7-104.9,117.9c-19.7,35.9-31.3,74.1-31.3,115.4c0,116.3,0,232.6,0,348.9
			c0,3.2,0.3,6.5,0.5,10.6c4.3,0.2,7.8,0.6,11.4,0.6c196.9,0,393.9,0,590.8,0c10.7,0,10.8,0,13.2-10.3
			c16.8-71.6,33.6-143.2,50.3-214.8c1-4.8,0.7-9.9-0.8-14.6c-9.2-29.9-18.9-59.6-28.5-89.4c-0.9-2.7-2.1-5.3-3.5-8.8l-28.4,14
			c-7.6,3.8-15.5,5.8-24.1,4.6c-16.7-2.3-27.6-11.7-34.4-26.9c-40.5-91.3-81.1-182.6-121.8-273.8
			C496.6,1407.5,485.7,1383.2,474.3,1357.5z M1754.6,2051.3c0.2-4.7,0.5-8.3,0.5-11.9c0-115.3,0-230.6,0-345.9
			c0-23.4-3.6-46.6-10.8-68.8c-16.2-50.8-45.7-93.2-83.6-129.7c-73.3-70.6-160.6-114.3-260.5-132.7c-12-2.2-24.3-3.1-36.6-4.7
			c-2.3,4.8-4.2,8.7-6,12.6c-49.6,111.3-99.4,222.6-148.4,334.2c-10.7,24.4-37.3,36.7-62.5,22.2c-7.1-4.1-14.8-7.3-22.6-11.2
			c-1.1,1.9-2.1,3.9-3,5.9c-10.8,31.1-21.7,62.2-32.2,93.5c-1.2,4.1-1.2,8.4-0.2,12.5c14.3,63.6,28.7,127.3,43.3,190.9
			c2.5,11,5.1,21.9,7.7,33.2H1754.6z M461.8,486.1l2.6,0.9c2.1-2.9,4.3-5.7,6.3-8.6c21.8-31.9,43.6-63.9,65.4-95.8
			c10.2-15,24.4-21,42.3-18.4c10.5,1.5,18.2,7.5,25.4,14.8c30.7,31,65,57.2,103.9,77.1c54,27.7,111.9,40.7,172,43.9
			c43,2.3,85.9,1.4,128.6-5.3c67.9-10.7,129.6-35.6,183.5-78.5c15.3-12.2,29.5-25.9,44-39.3c6.8-6.3,14-11.3,23.3-12.7
			c18.3-2.7,32.5,3.8,43,19.1c23.1,33.5,46.2,66.9,69.5,100.2c1.8,2.6,3.8,4.9,6.8,8.7c0.5-1.8,0.8-3.7,1.1-5.5
			c0.9-38.1-1-75.9-9.8-113.2c-38.6-163.6-184-285.5-356.2-289.6c-61-1.5-122-0.7-183-0.2c-18,0-35.9,1.6-53.7,4.5
			C669,107,584.4,162,523.7,252.8C482.8,313.9,463,382,461.8,455.4C461.7,465.7,461.8,475.9,461.8,486.1z M859.8,1549.7
			c-67.1-107.4-133.6-213.7-200.6-320.9l-108.5,97.5c46.1,103.7,91.7,206,137.6,309.3L859.8,1549.7z M1148.8,1635.3
			c1.9-3.6,3.3-5.8,4.4-8.2c43.4-97.6,86.9-195.2,130.3-292.9c3.5-7.9,3.5-8-2.7-13.5c-31.9-28.7-63.9-57.5-95.9-86.2
			c-1.9-1.7-4.1-3.1-6.9-5.1c-66.8,106.9-133.3,213.1-200,320.3L1148.8,1635.3z M1055,2051.2l-43.6-191.4H825.9l-44.8,191.4H1055z
			 M1048.8,1677.9c-3.8-2.1-6.6-3.7-9.5-5.2c-37.2-18.7-74.5-37.1-111.7-56c-6.3-3.2-11.3-3.3-17.6,0
			c-36.5,18.6-73.2,36.8-109.9,55.1c-2.6,1.3-5.1,2.9-8.6,4.9c10.7,33.4,21.4,66.4,31.9,99.1H1015L1048.8,1677.9z M775.6,1256.1
			c3.2,9.9,137.5,224.4,144.3,230.5c47.6-76.1,95.1-152.1,141.9-229.1C966.1,1281.8,871.1,1281.7,775.6,1256.1z"/>
		<path class="st0" d="M919.8,1061.7c-39.5-0.2-76-8.1-110.6-24.1c-12.9-6-21.2-15.7-24.3-29.7c-6.3-28.8,20.2-55.2,48.9-48.5
			c3.6,0.9,7,2.1,10.3,3.6c49.3,21.8,98.6,21.7,148.1,0.5c7.5-3.2,15-5.2,23.3-3.9c18.6,2.8,32.7,15.8,35.5,33
			c3.2,19.7-5.3,36.8-23.3,45.2C993.9,1053.5,957.1,1061.7,919.8,1061.7z"/>
		<path class="st0" d="M709.9,750c-23.2-0.2-40.7-18.3-40.4-41.7c0.3-23,18.7-40.6,42-40.2c22.6,0.4,40,18.4,39.9,41.3
			C751.3,732.6,733.3,750.2,709.9,750z"/>
		<path class="st0" d="M1127,750c-22.6-0.3-40.8-18.9-40.5-41.5s18.9-40.8,41.5-40.5c22.4,0.3,40.5,18.5,40.5,41
			c0.1,22.6-18.1,40.9-40.7,41C1127.5,750,1127.3,750,1127,750z"/>
		<path class="st0" d="M1377.4,1941.9c-28.3,0-56.6,0.2-84.9-0.1c-17.6-0.1-33-11.7-38.1-28.5c-5.1-16.8,0.8-34.9,14.8-45.4
			c7.8-5.8,16.6-8,26.2-7.9c37.3,0.2,74.5,0.1,111.8,0.1c18,0,35.9-0.2,53.9,0.1c20.2,0.3,37,14.9,39.7,33.9
			c3,21.5-8.7,40.7-28.9,46.4c-4.5,1.1-9.1,1.6-13.8,1.5C1431.3,1942,1404.3,1941.9,1377.4,1941.9L1377.4,1941.9z"/>
		<path class="st0" d="M1624.2,1941.9c-22.4,0-40.6-18.3-40.6-40.7c0-0.3,0-0.7,0-1c0.4-22.9,18.9-40.5,42.2-40.1
			c22.6,0.4,40,18.3,39.9,41.3C1665.6,1924.6,1647.6,1942.1,1624.2,1941.9z"/>
	</g>
</g>
</svg>
