<svg xmlns="http://www.w3.org/2000/svg" viewBox="0 0 1838 2134"><title>s-why-5</title><g id="Слой_2" data-name="Слой 2"><g id="Слой_1-2" data-name="Слой 1"><path d="M1838,1676v422a10.68,10.68,0,0,0-1,2.17q-6.13,26.7-32.81,32.81a10.68,10.68,0,0,0-2.17,1H36a10.68,10.68,0,0,0-2.17-1Q7.13,2126.84,1,2100.17A10.68,10.68,0,0,0,0,2098V1676a28.6,28.6,0,0,0,.93-4.31,303.52,303.52,0,0,1,16.93-82.84c22.16-63.2,60.26-115.79,108.66-161.2,61.4-57.61,132.72-98.81,212.3-125.87,46.4-15.77,94-25.53,143.06-27.78a10,10,0,0,0,5.53-2.7q38.77-34.6,77.4-69.38c11.51-10.34,23-20.72,34.69-31.27-1.29-1.15-2.21-2.08-3.24-2.86a502.38,502.38,0,0,1-66.06-58.67q-148.62-159-150.85-376.78c-.77-90.65-.25-181.31-.09-272,.05-33.87,3.2-67.48,10.76-100.57Q432.23,175.18,590.84,71.65C653.51,30.9,722.69,8.13,797.26,1.94,803.85,1.39,810.42.65,817,0h205c1.6.32,3.18.73,4.8.93,21.77,2.71,43.8,4.1,65.28,8.29,95.2,18.57,176.63,63.28,243.32,133.49,82.95,87.32,125.55,192,126.91,312.38,1.09,96.45,0,192.93-.25,289.4A468.08,468.08,0,0,1,1452,838.15q-39.35,190.47-189.13,314.61c-7.52,6.26-15.34,12.15-23.29,18.43,1.11,1.17,1.93,2.17,2.88,3q54.24,48.77,108.57,97.46a9.83,9.83,0,0,0,5.68,2.33,474.54,474.54,0,0,1,84.46,11.47q130.8,29.82,236.29,112.82c51.71,40.84,94.71,89.19,124.71,148.36,18.08,35.65,29.89,73.2,33.9,113.09C1836.58,1665.18,1837.34,1670.58,1838,1676ZM577.66,468.7c-.38.5-1.23,1.51-2,2.6q-55.35,81.09-110.6,162.25a15.79,15.79,0,0,0-2.42,8.3c-.17,30.66,0,61.33-.13,92a437.83,437.83,0,0,0,7.17,81c18.2,98.8,63.47,183.24,136.32,252.2,82.2,77.81,180.56,119.11,293.6,124.78,46.87,2.35,93.26-2.36,138.42-15.18C1175.76,1137.51,1275.6,1053,1337.34,924c26.7-55.81,40.27-115.15,41.7-177,.79-34.31.23-68.66,0-103a17.08,17.08,0,0,0-2.86-9.11Q1319.73,553,1262.94,471.4c-.91-1.3-2-2.5-3-3.87-1.5,1.19-2.55,2-3.56,2.85-49.29,41.23-104.52,71.5-166.17,89.87-59.73,17.8-120.88,24-183,22.94A647.93,647.93,0,0,1,805.84,574c-60.82-10.69-118-31.27-170.13-64.52C615.94,496.85,597.27,482.54,577.66,468.7ZM716.75,1713.48c-10.24,5.11-19.89,10-29.57,14.73-7.48,3.69-15.38,5.41-23.72,4.22-16.42-2.35-27.45-11.54-34.14-26.59q-76.07-171.27-152.21-342.49c-1.71-3.86-3.35-6.28-8.32-5.46-14.6,2.42-29.4,3.74-43.9,6.64-67.15,13.46-128.74,40.26-185.16,78.89-47.1,32.24-87.69,71-117.86,120-25.76,41.76-39.12,86.9-38.92,136.33.46,114.49.14,229,.14,343.47,0,7.72,0,7.73,7.92,7.73H474q108.24,0,216.48.07c4.1,0,6-.85,7.07-5.34q25.9-111.51,52.15-222.94a14.67,14.67,0,0,0-.34-7.26c-4.28-14-8.78-27.91-13.25-41.84C729.75,1753.82,723.37,1734.05,716.75,1713.48Zm407.32,1.42a26.83,26.83,0,0,0-1.2,2.41q-17.23,49.73-34.35,99.49a13,13,0,0,0-.08,6.77q25.07,110.43,50.15,220.85c1.13,5,2.85,6.61,8,6.6q300.48-.2,600.95-.11c7.32,0,7.33,0,7.33-7.32q0-174,0-348a237.53,237.53,0,0,0-20.53-97.42c-19.7-44.48-48.92-82-85-114.18-79.83-71.19-172.68-114-279.32-126-4.92-.56-7.26.77-9.32,5.42q-75.93,171.31-152.19,342.49c-11,24.84-35.43,33.51-59.66,21.41C1140.79,1723.22,1132.62,1719.15,1124.07,1714.9ZM1378,491.33l1.21-.36c0-8.62-.16-17.25,0-25.87.66-29.1-1.68-58-8.47-86.26-30-124.81-104-213.38-221-265.64-47.12-21-97.12-29.95-148.65-30.08q-80.51-.2-161,0c-27.86.05-55.52,2.42-82.75,8.63-99.16,22.58-177,76.45-233.28,160.87-46.92,70.33-65,148.64-61.45,232.5,0,.75.26,1.49.6,3.42,4.43-6.45,8.25-12,12.05-17.56,20.57-30.11,40.94-60.38,61.77-90.31,15.33-22,44.73-24.45,63.91-5.76,3,2.91,5.87,5.92,8.85,8.83,35,34.16,74.42,61.9,119.42,81.48,52,22.62,106.78,32.43,163.08,34.6,42.35,1.64,84.57-.13,126.4-7.71,39-7.07,76.46-19,111.81-37.11,39.5-20.29,74.07-47.13,105.2-78.65,20.54-20.79,49.76-18.14,66.54,5.89q27,38.73,53.84,77.58Q1367,475.6,1378,491.33ZM659.52,1229c-1.55,1.21-2.63,2-3.6,2.82q-50.74,45.56-101.54,91.05c-3.07,2.74-2.31,4.82-1,7.74q60.39,135.59,120.69,271.2c4.79,10.76,9.61,21.49,14.66,32.8l170.79-85.56Zm519-.07c-66.74,106.8-133.2,213.18-200,320.1l170.64,85.5c1.13-2.33,2-3.94,2.71-5.6q66.43-149.26,132.91-298.52c1.56-3.49,1.11-5.48-1.74-8q-50.11-44.75-100-89.74C1181.7,1231.45,1180.27,1230.37,1178.53,1228.94ZM781.71,2050.46h272.81c-.28-1.95-.39-3.43-.72-4.85q-20.7-90.69-41.32-181.41c-1-4.3-2.49-5.51-6.8-5.5q-86,.22-172,0c-5.41,0-7.62,1.32-8.89,6.84-11.37,49.6-23.09,99.1-34.69,148.64C787.32,2026.08,784.58,2038,781.71,2050.46Zm137.38-275q45.48,0,91,.06c3.19,0,5-.58,6.22-4q15.27-44.85,31-89.54c1.24-3.53.7-5.23-2.72-6.93-40.68-20.21-81.27-40.59-122-60.73a9.4,9.4,0,0,0-7.27.06C875.5,1634,835.81,1654,796,1673.72c-3.21,1.6-3.85,3.08-2.75,6.46q14.76,45.28,29.1,90.69c1.21,3.83,3.08,4.66,6.76,4.64C859.11,1775.38,889.1,1775.43,919.09,1775.43ZM774,1255.42l145,231.95,144.74-231.6C966.69,1281.65,871,1281.59,774,1255.42Z"/><path d="M919,1062.33c-38.74-1.06-75.69-9-110.76-25.45a41.51,41.51,0,0,1,34.13-75.68c26.51,12.16,54.16,18,83.32,17,24-.82,46.6-6.7,68.48-16.3,24.12-10.59,50.81,2.87,57.1,28.42a41.18,41.18,0,0,1-22.58,47,232.78,232.78,0,0,1-66.05,20.38C948.16,1059.85,933.53,1060.83,919,1062.33Z"/><path d="M752.09,708.83A41,41,0,0,1,710.8,750c-23.42,0-41.7-18.4-41.6-41.93.11-22.94,18.8-41.14,42.1-41C734.09,667.26,752.18,685.76,752.09,708.83Z"/><path d="M1127.41,750a41.45,41.45,0,1,1,41.47-41.61A41,41,0,0,1,1127.41,750Z"/><path d="M1377.32,1941.89q-41.73,0-83.46,0a41.39,41.39,0,1,1,.06-82.77q83.44-.06,166.91,0a41.39,41.39,0,0,1-.06,82.77Q1419,1941.92,1377.32,1941.89Z"/><path d="M1625,1941.89a41.33,41.33,0,0,1-41.54-41.56c.17-23.11,18.63-41.26,41.92-41.22a41.39,41.39,0,1,1-.38,82.78Z"/></g></g></svg>