<svg xmlns="http://www.w3.org/2000/svg" viewBox="0 0 2132 2134"><title>s-why-6</title><g id="Слой_2" data-name="Слой 2"><g id="Слой_1-2" data-name="Слой 1"><path d="M806,2134a48.88,48.88,0,0,0-6.36-2.38c-48.77-11.1-81.37-51.57-81.4-101.43-.06-104-.55-208,.12-312,.72-113.32-28.05-218.73-83.16-317.18a810,810,0,0,0-44.27-70.09c-73.18-104.06-124.27-217.82-151.74-342.06-14.74-66.68-21.87-134.24-18.26-202.48,9.21-174.2,72.3-325.81,194-451.56,89-91.94,196.37-152.13,321.62-179.59a601.27,601.27,0,0,1,183.83-11.35c153.17,13.82,283.67,76.69,392.36,184.5,95,94.2,155.54,207.86,184.7,338.29a693.57,693.57,0,0,1,15.58,185.7c-4.33,89.17-23.18,175.44-54.2,259.08a948.12,948.12,0,0,1-116.5,220.2c-51,71.89-88.66,150.09-109.57,236a590.74,590.74,0,0,0-17,139.54c-.1,106.66-.74,213.33.28,320,.49,51.92-35.74,96.17-83.71,104.75-1.53.27-2.92,1.35-4.38,2.05Zm507.33-444.46c.35-3.5.81-6.4.91-9.3A685.87,685.87,0,0,1,1333.51,1543c24-98.7,67.2-188.54,125.79-271.17a839.88,839.88,0,0,0,89.9-162.24c32.76-78.3,53.92-159.52,60.55-244.23a593,593,0,0,0-9.08-161.14c-24-122-79.11-227.5-169.86-312.64-119.37-112-261-161.64-424.73-144.1-71.89,7.7-138.85,31-201.24,67.34C644.74,408.05,538,579.64,523.9,774.69c-4.07,56.14-.14,111.9,10.41,167.1,22.89,119.84,69.9,229.45,139.75,329.52a960.12,960.12,0,0,1,52.09,82.85c56.7,102,89.37,211.19,93.67,328.3a50.1,50.1,0,0,0,1,6.44c11.88,2.3,107.87,1.75,115-.61,0-3.57.2-7.22,0-10.85-1.82-27.92-3.74-55.83-5.59-83.75-2.17-32.58-4.26-65.16-6.46-97.73-3-44.87-6.16-89.73-9.14-134.6-2.34-35.23-4.47-70.48-6.79-105.71-3.15-47.87-6.28-95.73-9.74-143.58a50.36,50.36,0,0,0-4.47-17.14c-25.36-54.68-51-109.22-76.57-163.81-6.5-13.88-13.33-27.61-19.32-41.7-12.59-29.67,3.57-62.3,34.58-69.9,5.73-1.41,11.89-1.4,17.85-1.41q217-.11,433.94-.05c2.66,0,5.33,0,8,.08a50.31,50.31,0,0,1,48.18,46.11c1,11-1.71,21-6.37,30.88-28.65,60.87-56.93,121.9-85.75,182.69-7.5,15.8-12.64,31.47-13.42,49.42-2.12,48.24-6.09,96.4-9.3,144.59q-3.21,48.38-6.36,96.73-4.72,70.8-9.53,141.59c-1.68,24.92-3.43,49.84-5.11,74.77q-3.29,48.86-6.46,97.72c-.14,2.18.43,4.41.7,6.9Zm-388-769.06c2.23,5,3.62,8.36,5.15,11.62,20.18,43.12,40.26,86.29,60.66,129.3a90.52,90.52,0,0,1,8.53,34.58c1.91,34.58,4.3,69.14,6.58,103.7q4.71,71.27,9.52,142.54c2.19,32.89,4.27,65.8,6.48,98.69,3,45.52,6.22,91,9.25,136.55,2.28,34.23,4.38,68.47,6.65,102.69a90.62,90.62,0,0,0,1.69,9.63h54.48c.57-3.49,1.36-6.67,1.57-9.89,1.61-24.26,3.09-48.53,4.65-72.79q3.17-49.35,6.41-98.7,4.71-70.77,9.52-141.54c2.21-33.23,4.29-66.47,6.49-99.69,3.84-57.82,7.79-115.63,11.54-173.45a80.44,80.44,0,0,1,7.29-29.82q31.15-65.91,61.85-132.05c1.61-3.44,2.93-7,4.72-11.37ZM820.75,1860.71h239c3,0,6-.09,9,0,26,1.09,47.43,21.36,49.09,46.47,1.82,27.62-15.14,50-41.83,54.78a97.09,97.09,0,0,1-16.88,1.24q-113,.12-225.93,0h-11.3c-2.67,12.08-2.18,60.5.73,68.53h476.3c2.66,0,5.35.16,8-.09a49.25,49.25,0,0,0,6.28-1.34c2.11-16.05,1-230.29-1.55-238.21H832.4a34.6,34.6,0,0,0-5,.08c-2.19.31-4.33.94-6.66,1.48Z"/><path d="M1766,0c2.68,1.14,5.3,2.47,8.06,3.38,37.56,12.37,48.84,57.12,21.16,85.3C1768.39,116,1741.12,142.89,1714,170c-16.48,16.48-32.85,33.08-49.48,49.4-15.14,14.86-33.17,19.38-53.26,12.52-19.77-6.75-30.94-21.32-34-41.8-2.12-14.22,2-27.05,10.84-38.28a117.75,117.75,0,0,1,9.54-10.2c36.24-36.28,72.67-72.38,108.69-108.87C1720.22,18.68,1733.77,4.6,1754,0Z"/><path d="M380,0c.25.21.48.57.77.62C398.7,4.24,411.09,16,423.4,28.48c38.37,38.84,77.09,77.33,115.75,115.88,8.45,8.42,14.73,17.84,16.94,29.84A51,51,0,0,1,473,222.76c-1.52-1.29-2.94-2.71-4.35-4.12Q404,154,339.4,89.43c-14.82-14.81-19-32.49-13.35-52.28C330.77,20.7,342,9.85,358.06,4c3.36-1.21,6.63-2.69,9.94-4Z"/><path d="M0,738c1.5-2.82,3.44-5.49,4.44-8.48C11.71,708,29.59,694.05,52.36,694q93.87-.42,187.73,0c28.87.17,50,22.55,49.84,51.33-.17,27.93-21.71,50.21-50,50.36q-93.87.51-187.74,0c-22.34-.09-40.8-14.5-47.81-35.83C3.3,756.45,1.49,753.28,0,750Z"/><path d="M2132,750a31.29,31.29,0,0,0-2.11,5.5,49.17,49.17,0,0,1-43.86,40c-3.31.29-6.66.25-10,.25-59,0-117.92.13-176.89-.14-7.52,0-15.45-.91-22.47-3.41-23.23-8.26-36.22-32-32.07-56.84a49.83,49.83,0,0,1,48.3-41.38c43.3-.46,86.61-.17,129.91-.18,20,0,40-.43,60,.18,21.38.65,36.25,11.74,44.95,31.08,1.85,4.11,2.87,8.6,4.27,12.91Z"/><path d="M466.13,1396.64c.1,13.65-4.46,25.58-14.07,35.22q-68.06,68.3-136.38,136.31a50.89,50.89,0,0,1-70.53.69c-20.22-19.09-21.64-50-3.26-71.2,1.08-1.26,2.22-2.49,3.39-3.66q66-66.07,132.09-132.14c10.64-10.66,23.21-16.49,38.39-16.33C444.19,1345.82,466.17,1368.14,466.13,1396.64Z"/><path d="M1716.86,1346.06c16.87-.07,28.78,5.16,38.71,14.89,11,10.71,21.73,21.58,32.54,32.42q50.79,50.89,101.52,101.85c20.82,21,20.47,53.19-.42,73.29-18.64,17.94-48.65,18.89-68.34,2.15-1-.87-2-1.78-2.93-2.72Q1750.5,1500.5,1683.11,1433c-13.51-13.58-17.85-30.15-13.23-48.69C1675.67,1361.09,1695.68,1346,1716.86,1346.06Z"/></g></g></svg>