<?xml version="1.0" encoding="utf-8"?>
<!-- Generator: Adobe Illustrator 23.0.2, SVG Export Plug-In . SVG Version: 6.00 Build 0)  -->
<svg version="1.1" id="Слой_1" xmlns="http://www.w3.org/2000/svg" xmlns:xlink="http://www.w3.org/1999/xlink" x="0px" y="0px"
	 viewBox="0 0 2092 2008" style="enable-background:new 0 0 2092 2008;" xml:space="preserve">
<style type="text/css">
	.st0{fill:#DB1E32;}
	.st1{font-family:'MyriadPro-Regular';}
	.st2{font-size:12px;}
</style>
<title>s-why-4</title>
<g>
	<g id="Слой_1-2">
		<path class="st0" d="M1754,2008H340c-2.5-0.7-5-1.8-7.5-2c-35.2-3.1-69.7-11.4-102.4-24.8c-131-53.4-215.2-174.8-226.2-304.7
			c-0.6-6.9-2.6-13.6-3.9-20.5V354c0.9-3.9,2-7.7,2.7-11.6c3-19.1,4.6-38.4,8.8-57.2C46.2,131.2,175.9,20.3,324.4,3.9
			c9.9-1.1,19.7-2.6,29.6-3.9h1386c4.6,0.7,9.1,1.6,13.7,2.1c8.6,1,17.3,1.4,25.8,2.7c82.8,12.5,154,48.4,211.8,109.1
			c57.1,60.1,91.4,131.1,98.7,214.4c0.2,2.6,1.4,5.1,2.1,7.6v1338c-0.9,2.8-1.6,5.6-2.2,8.5c-1.8,12.2-2.6,24.5-5.1,36.5
			c-33,154.8-160.5,265.7-306.2,285.1C1770.3,2005.2,1762.2,2006.7,1754,2008z M2010.4,962.9v-11.1c0-195.6-0.1-391.2-0.2-586.8
			C2010,209.4,1883.6,83.4,1728,83.7c0,0-0.1,0-0.1,0c-208.9-0.1-417.9-0.1-626.8,0h-10.3c-0.6,0.8-1.2,1.7-1.6,2.6
			c-0.3,0.9-0.5,1.9-0.5,2.9c-0.1,287.9-0.1,575.8-0.1,863.8c0,2.6,0.4,5.3,0.7,7.9c0.1,0.3,0.3,0.6,0.5,0.8
			c0.2,0.3,0.5,0.5,1.2,1.2L2010.4,962.9z M2010.4,1046.1h-919.9c-0.5,0.7-1,1.4-1.3,2.1c-0.3,0.9-0.5,1.9-0.5,2.9
			c-0.1,288.3-0.1,576.5-0.1,864.8c0.1,2.3,0.3,4.6,0.7,6.9c0.1,0.3,0.3,0.6,0.5,0.8c0.2,0.3,0.5,0.5,1.8,1.8h10.8
			c207.6,0,415.2,0,622.8-0.2c16,0.1,32-1.1,47.8-3.6c136.4-21.8,237.3-139.7,237.5-277.9c0.3-195.6,0.3-391.2,0.1-586.8V1046.1z
			 M1005.9,83.6h-12c-208.9,0-417.9,0.1-626.8,0.2c-16.9,0-34.2,1.1-50.6,4.5c-106.7,22.4-179,84.8-216.9,187.4
			c-11.2,30.3-15,62-15,94.2c0,102.3,0,204.6,0,306.9c0,90.7,0,181.3,0,271.9c0,4.5,0.5,9,0.7,13.3c12.9,2.3,912.9,1.7,920.7-0.5
			L1005.9,83.6z M85.2,1046.1c-0.3,4.3-0.7,8.2-0.7,12.1c0,194.3,0,388.6,0,582.8c-0.1,26,3.3,51.9,10.2,77
			c31.4,114.7,137.3,207.3,273.4,207.4c208.9,0.1,417.9,0.1,626.8,0c3.5,0,7.1-0.4,10.4-0.7c2.2-15.2,1.4-871.2-0.8-878.7
			L85.2,1046.1z"/>
		<path class="st0" d="M1655,494.5c54.6,0,109.3,0,163.9,0c21.7,0,37.7,13.4,41.7,34.3c3.9,20.8-10.2,42.4-31,46.7
			c-5.2,1-10.5,1.5-15.9,1.5c-106.2,0.1-212.5,0.1-318.8,0c-6.3,0.1-12.6-0.6-18.8-2.1c-18.4-5.1-31.1-24.4-28.9-42.8
			c2.6-20.8,18-36.1,37.8-37.5c3-0.2,6-0.1,9-0.1L1655,494.5z"/>
		<path class="st0" d="M1298.7,494.6c12.3,0,24.6-0.3,36.9,0.1c19.4,0.7,35.5,15.2,38.4,34.4c2.9,20.8-8.1,39.5-27.3,45.5
			c-5.4,1.6-11,2.5-16.7,2.5c-21.3,0.3-42.6,0.2-63.9,0.1c-8.1,0-15.9-1.4-23.1-5.3c-16.3-8.9-24.5-27.3-20.3-45.9
			c3.9-17.2,20-30.7,38.1-31.3C1273.4,494.3,1286.1,494.6,1298.7,494.6z"/>
		<path class="st0" d="M1540.6,1537.3c-5.2,5-8.1,7.7-10.9,10.5c-51.9,51.8-103.7,103.7-155.5,155.6c-9.4,9.4-20,15.3-33.6,14.8
			c-16.1-0.6-28.1-8.2-35.3-22.3s-6.3-28.4,2.7-41.7c3-4.4,6.8-8.2,10.6-11.9c50.9-50.9,101.7-101.9,152.7-152.7
			c2.8-2.8,5.5-5.7,9-9.3c-3-3.2-5.7-6.1-8.4-8.9c-52.1-52.1-104.1-104.2-156.2-156.2c-6.5-6.5-11.6-13.6-13.7-22.7
			c-5.2-22.1,8.6-44.2,30.7-49.4c12.3-2.9,25.3,0.1,35.1,8c2.8,2.4,5.5,4.9,8,7.6l154.8,154.8c2.6,2.6,5.2,5,8.4,8
			c3.3-3.2,6.2-5.9,9-8.6c51.8-51.8,103.7-103.7,155.5-155.6c9.1-9.1,19.2-15.3,32.5-15.1c16.9,0.2,29.6,7.9,37,22.9
			s5.6,29.8-4.3,43.3c-2.6,3.5-5.8,6.4-8.8,9.5c-51.1,51.2-102.2,102.3-153.4,153.4c-2.8,2.8-5.4,5.7-8.7,9.1c3.1,3.2,5.5,5.8,8,8.3
			c52.3,52.3,104.6,104.6,157,156.9c6.3,6.3,11.2,13.1,13.3,21.8c4.2,17.7-3.1,35.5-18.3,44.9c-15.3,9.3-34.8,7.7-48.4-3.9
			c-2.8-2.4-5.3-5.1-7.9-7.7c-50.9-50.9-101.8-101.8-152.6-152.7C1545.8,1545.2,1543.8,1541.6,1540.6,1537.3z"/>
		<path class="st0" d="M587.5,494.5h14c74,0,148,0,222,0c19.9,0,35.2,11.1,40.7,29.2c6.7,21.4-5.3,44.2-26.7,50.9
			c-1.6,0.5-3.2,0.9-4.9,1.2c-5.3,0.9-10.6,1.3-15.9,1.2c-72,0.1-144,0.1-216,0h-13.2v12.7c0,73.3,0,146.7-0.1,220
			c0.1,5-0.4,10-1.5,14.8c-4.7,19-21.8,31.5-41.4,30.8c-19-0.7-35-14.5-38.4-33.3c-0.8-4.9-1.2-9.9-1.1-14.9
			c-0.1-72.3-0.1-144.7,0-217v-13.1h-12.7c-72,0-144,0-216,0c-5,0.1-10-0.3-14.9-1c-21.9-3.5-36.6-22.4-34.8-44.1
			c1.8-21.3,19.7-37.6,41-37.4c58.7-0.2,117.3-0.1,176-0.1c18.3,0,36.7,0,55,0c1.6,0,3.2-0.3,5.8-0.6c0.2-4.5,0.5-8.7,0.5-12.9
			c0-72.7-0.1-145.3,0.1-218c0-6.9,0.8-14.1,3-20.6c6.5-18.8,25.5-29.1,45.5-25.9c18.3,2.9,32.6,19.1,33.8,38.1
			c0.2,3.3,0.1,6.7,0.1,10L587.5,494.5L587.5,494.5z"/>
		<path class="st0" d="M546,1399.6c-90.3,0-180.6,0-270.9-0.1c-6.9,0-14.1-0.4-20.7-2.4c-17.7-5.3-29.1-22.9-27.9-41.6
			c1.2-18.6,14.9-34.1,33.2-37.4c4.6-0.8,9.2-1.2,13.9-1.2c181.9-0.1,363.9-0.1,545.8,0c6.3-0.1,12.6,0.8,18.7,2.5
			c18.8,5.8,30,24.4,27.6,44.6c-2.2,18.4-17.8,33.4-36.8,35.2c-4.3,0.4-8.7,0.3-13,0.3C725.9,1399.6,635.9,1399.6,546,1399.6z"/>
		<path class="st0" d="M547,1538.4c91,0,181.9,0,272.9,0.1c5.9,0,12.1,0.4,17.7,2.1c18.9,5.7,30.2,23.8,28,44.2
			c-1.9,18.6-17.3,33.6-36.4,35.4c-4,0.4-8,0.4-12,0.4H275.6c-4,0-8,0-12-0.3c-21.6-1.8-38-20.3-37.1-42
			c0.7-21.3,17.5-38.5,38.7-39.7c3.3-0.2,6.7-0.1,10-0.1L547,1538.4z"/>
	</g>
</g>
<text transform="matrix(1 0 0 1 1453 743)" class="st0 st1 st2">#db1e32</text>
</svg>
