<?xml version="1.0" encoding="utf-8"?>
<!-- Generator: Adobe Illustrator 23.0.2, SVG Export Plug-In . SVG Version: 6.00 Build 0)  -->
<svg version="1.1" xmlns:xlink="http://www.w3.org/1999/xlink" x="0px" y="0px"
	 viewBox="0 0 2132 2134" style="enable-background:new 0 0 2132 2134;" xml:space="preserve">
<style type="text/css">
	.st0{fill:#DB1E32;}
</style>
 
<g>
	<g id="Слой_1-2">
		<path class="st0" d="M806,2134c-2.1-0.9-4.2-1.7-6.4-2.4c-48.8-11.1-81.4-51.6-81.4-101.4c-0.1-104-0.5-208,0.1-312
			c0.7-113.3-28-218.7-83.2-317.2c-13.6-24.1-28.3-47.5-44.3-70.1c-73.2-104.1-124.3-217.8-151.7-342.1
			c-14.7-66.7-21.9-134.2-18.3-202.5c9.2-174.2,72.3-325.8,194-451.6c89-91.9,196.4-152.1,321.6-179.6
			c60.3-13.2,122.3-17,183.8-11.4c153.2,13.8,283.7,76.7,392.4,184.5c95,94.2,155.5,207.9,184.7,338.3
			c13.5,60.9,18.8,123.4,15.6,185.7c-4.3,89.2-23.2,175.4-54.2,259.1c-29,78.2-68.2,152.2-116.5,220.2
			c-51,71.9-88.7,150.1-109.6,236c-11.2,45.7-16.9,92.5-17,139.5c-0.1,106.7-0.7,213.3,0.3,320c0.5,51.9-35.7,96.2-83.7,104.7
			c-1.5,0.3-2.9,1.4-4.4,2.1L806,2134z M1313.3,1689.5c0.3-3.5,0.8-6.4,0.9-9.3c1.8-46.3,8.2-92.3,19.3-137.2
			c24-98.7,67.2-188.5,125.8-271.2c35.9-50.6,66-105,89.9-162.2c32.8-78.3,53.9-159.5,60.6-244.2c4.3-53.9,1.3-108.1-9.1-161.1
			c-24-122-79.1-227.5-169.9-312.6c-119.4-112-261-161.6-424.7-144.1c-71.9,7.7-138.8,31-201.2,67.3
			C644.7,408,538,579.6,523.9,774.7c-4.1,56.1-0.1,111.9,10.4,167.1c22.9,119.8,69.9,229.4,139.8,329.5
			c18.8,26.7,36.1,54.4,52.1,82.8c56.7,102,89.4,211.2,93.7,328.3c0.2,2.2,0.5,4.3,1,6.4c11.9,2.3,107.9,1.8,115-0.6
			c0-3.6,0.2-7.2,0-10.8c-1.8-27.9-3.7-55.8-5.6-83.8c-2.2-32.6-4.3-65.2-6.5-97.7c-3-44.9-6.2-89.7-9.1-134.6
			c-2.3-35.2-4.5-70.5-6.8-105.7c-3.2-47.9-6.3-95.7-9.7-143.6c-0.5-5.9-2-11.7-4.5-17.1c-25.4-54.7-51-109.2-76.6-163.8
			c-6.5-13.9-13.3-27.6-19.3-41.7c-12.6-29.7,3.6-62.3,34.6-69.9c5.7-1.4,11.9-1.4,17.8-1.4c144.7-0.1,289.3-0.1,433.9,0
			c2.7,0,5.3,0,8,0.1c25.4,1,46.1,20.8,48.2,46.1c1,11-1.7,21-6.4,30.9c-28.7,60.9-56.9,121.9-85.8,182.7
			c-7.5,15.8-12.6,31.5-13.4,49.4c-2.1,48.2-6.1,96.4-9.3,144.6c-2.1,32.3-4.3,64.5-6.4,96.7c-3.1,47.2-6.3,94.4-9.5,141.6
			c-1.7,24.9-3.4,49.8-5.1,74.8c-2.2,32.6-4.3,65.1-6.5,97.7c-0.1,2.2,0.4,4.4,0.7,6.9H1313.3z M925.3,920.5c2.2,5,3.6,8.4,5.2,11.6
			c20.2,43.1,40.3,86.3,60.7,129.3c5.1,10.8,8,22.6,8.5,34.6c1.9,34.6,4.3,69.1,6.6,103.7c3.1,47.5,6.3,95,9.5,142.5
			c2.2,32.9,4.3,65.8,6.5,98.7c3,45.5,6.2,91,9.3,136.6c2.3,34.2,4.4,68.5,6.7,102.7c0.4,3.2,1,6.5,1.7,9.6h54.5
			c0.6-3.5,1.4-6.7,1.6-9.9c1.6-24.3,3.1-48.5,4.7-72.8c2.1-32.9,4.3-65.8,6.4-98.7c3.1-47.2,6.3-94.4,9.5-141.5
			c2.2-33.2,4.3-66.5,6.5-99.7c3.8-57.8,7.8-115.6,11.5-173.4c0.5-10.3,3-20.4,7.3-29.8c20.8-43.9,41.4-88,61.8-132
			c1.6-3.4,2.9-7,4.7-11.4H925.3z M820.8,1860.7h239c3,0,6-0.1,9,0c26,1.1,47.4,21.4,49.1,46.5c1.8,27.6-15.1,50-41.8,54.8
			c-5.6,0.9-11.2,1.3-16.9,1.2c-75.3,0.1-150.6,0.1-225.9,0h-11.3c-2.7,12.1-2.2,60.5,0.7,68.5h476.3c2.7,0,5.3,0.2,8-0.1
			c2.1-0.3,4.2-0.8,6.3-1.3c2.1-16.1,1-230.3-1.6-238.2H832.4c-1.7-0.1-3.3-0.1-5,0.1c-2.2,0.3-4.3,0.9-6.7,1.5L820.8,1860.7z"/>
		<path class="st0" d="M1766,0c2.7,1.1,5.3,2.5,8.1,3.4c37.6,12.4,48.8,57.1,21.2,85.3c-26.8,27.3-54.1,54.2-81.2,81.3
			c-16.5,16.5-32.8,33.1-49.5,49.4c-15.1,14.9-33.2,19.4-53.3,12.5c-19.8-6.8-30.9-21.3-34-41.8c-2.1-14.2,2-27.1,10.8-38.3
			c3-3.6,6.2-7,9.5-10.2c36.2-36.3,72.7-72.4,108.7-108.9c13.9-14.1,27.4-28.2,47.7-32.8H1766z"/>
		<path class="st0" d="M380,0c0.3,0.2,0.5,0.6,0.8,0.6c17.9,3.6,30.3,15.4,42.6,27.9c38.4,38.8,77.1,77.3,115.8,115.9
			c8.5,8.4,14.7,17.8,16.9,29.8c5.4,27.7-12.7,54.4-40.4,59.8c-15.2,2.9-30.9-1.2-42.7-11.2c-1.5-1.3-2.9-2.7-4.4-4.1
			c-43.1-43.1-86.2-86.2-129.3-129.2c-14.8-14.8-19-32.5-13.4-52.3c4.7-16.5,16-27.3,32-33.2c3.4-1.2,6.6-2.7,9.9-4H380z"/>
		<path class="st0" d="M0,738c1.5-2.8,3.4-5.5,4.4-8.5C11.7,708,29.6,694,52.4,694c62.6-0.3,125.2-0.3,187.7,0
			c28.9,0.2,50,22.5,49.8,51.3c-0.2,27.9-21.7,50.2-50,50.4c-62.6,0.3-125.2,0.3-187.7,0c-22.3-0.1-40.8-14.5-47.8-35.8
			c-1.1-3.4-2.9-6.6-4.4-9.9V738z"/>
		<path class="st0" d="M2132,750c-0.9,1.8-1.6,3.6-2.1,5.5c-4,21.6-21.9,38-43.9,40c-3.3,0.3-6.7,0.3-10,0.3
			c-59,0-117.9,0.1-176.9-0.1c-7.5,0-15.4-0.9-22.5-3.4c-23.2-8.3-36.2-32-32.1-56.8c4.1-23.6,24.3-41,48.3-41.4
			c43.3-0.5,86.6-0.2,129.9-0.2c20,0,40-0.4,60,0.2c21.4,0.7,36.3,11.7,44.9,31.1c1.9,4.1,2.9,8.6,4.3,12.9L2132,750z"/>
		<path class="st0" d="M466.1,1396.6c0.1,13.7-4.5,25.6-14.1,35.2c-45.4,45.5-90.8,91-136.4,136.3c-19.5,19.1-50.6,19.4-70.5,0.7
			c-20.2-19.1-21.6-50-3.3-71.2c1.1-1.3,2.2-2.5,3.4-3.7c44-44,88-88.1,132.1-132.1c10.6-10.7,23.2-16.5,38.4-16.3
			C444.2,1345.8,466.2,1368.1,466.1,1396.6z"/>
		<path class="st0" d="M1716.9,1346.1c16.9-0.1,28.8,5.2,38.7,14.9c11,10.7,21.7,21.6,32.5,32.4c33.9,33.9,67.7,67.9,101.5,101.8
			c20.8,21,20.5,53.2-0.4,73.3c-18.6,17.9-48.7,18.9-68.3,2.2c-1-0.9-2-1.8-2.9-2.7c-45-45-89.9-89.9-134.8-134.9
			c-13.5-13.6-17.8-30.2-13.2-48.7C1675.7,1361.1,1695.7,1346,1716.9,1346.1z"/>
	</g>
</g>
</svg>
