<svg xmlns="http://www.w3.org/2000/svg" viewBox="0 0 2042 2042"><title>s-why-2</title><g id="Слой_2" data-name="Слой 2"><g id="Слой_1-2" data-name="Слой 1"><path d="M0,1903V522c1-6.88,1.69-13.84,3.18-20.62,12.28-55.66,44.77-93.79,99-112.22,11.07-3.76,23.12-4.5,34.56-7.28,20.68-5,41.24-10.52,61.85-15.82L639.18,252.79,969.1,168l335.24-86.22q139.59-35.88,279.2-71.79C1595.73,6.8,1607.85,3.32,1620,0h17a21,21,0,0,0,3.73,1,119.45,119.45,0,0,1,61,22.6c41.56,30.2,61.29,72.12,61.83,122.64.8,76.63.21,153.27.21,229.91v6.76c13.09,0,25.39.07,37.68,0,22.53-.17,44.16,4.16,64,14.79,52.48,28.12,79.6,72.5,80.4,131.8.88,65.13.2,130.28.2,195.42,0,50.48.06,101-.09,151.44,0,4.57,1.25,5.95,5.88,5.87,15.49-.28,31-.13,46.48-.1a43.05,43.05,0,0,1,42,32.76c.52,2,1.11,4.09,1.67,6.13v574a11.1,11.1,0,0,0-.92,2.25c-4,23.28-18.78,35.8-42.41,35.84q-20.24,0-40.49,0c-7.61,0-7.61,0-7.61,7.42q0,174.45-.07,348.9a198.75,198.75,0,0,1-1.54,24.38c-7.75,62-52.45,110.89-113.55,124.25-7.72,1.69-15.6,2.66-23.41,4H135c-5.19-.81-10.41-1.49-15.58-2.44-59.34-10.92-106-57.86-116.33-117C2,1916,1,1909.51,0,1903Zm973.16,56.44q412.25,0,824.49-.13a79.58,79.58,0,0,0,23.09-3c26-8,43.35-33.78,43.36-63.06q0-176.51,0-353c0-7.17,0-7.18-7.37-7.18q-214,0-428,.05c-29,0-57.5-3.37-85.33-11.34-94.17-27-163.59-84.17-207.24-171.89-26.81-53.89-36.1-111.33-31.22-171.18,3.64-44.54,15-87.06,36.9-126,62.17-110.56,157.66-168.26,284-170.14,142.47-2.13,285-.5,427.49-.47,3.46,0,6.22.43,6.22-4.88q-.22-172.74,0-345.49c.08-33.71-24.59-67.22-67.92-67.18q-821,.72-1642,.32c-2,0-4-.06-6,0-17.55.56-32.32,7.21-44,20.37C87,499.45,82.49,516.28,82.49,535q.14,677.25.07,1354.48c0,1,0,2,0,3,.2,24.11,9.38,43.65,29.52,57.46,11,7.54,23.44,9.56,36.58,9.56Q560.92,1959.38,973.16,1959.44Zm707.77-985.88q-128.22,0-256.45.12a194.08,194.08,0,0,0-31.3,2.55c-58.48,9.72-107.23,37.3-145.38,82.49-46.08,54.59-65,117.81-54.58,188.68,8,54.78,33.38,101.16,73.88,138.8,45.68,42.44,99.89,64.76,162.48,64.83q258.95.32,517.9.07c7.42,0,7.43,0,7.43-7.12V980.58c0-7,0-7-7-7Zm.18-591.37v-7c0-75.66.08-151.33-.14-227a82,82,0,0,0-3.17-22.63c-5.47-18.66-15.89-33.72-34.69-41.26a16.43,16.43,0,0,0-9.6-.46Q1511.29,115.26,1389.14,147L867.63,282.19,497.8,378.08c-3.84,1-7.63,2.15-11.44,3.22l.2.89Z"/><path d="M1444.07,1173.92c9,0,18.12-1.09,26.9.22,23.06,3.44,37.17,22.3,35.89,46.45-1.06,20-18.95,37.84-40.29,38.77-16.12.7-32.4.86-48.43-.64-21.69-2-37.88-22.4-36.69-44,1.36-24.82,17.67-41.13,41.62-41.55,7-.12,14,0,21,0Z"/></g></g></svg>