<svg xmlns="http://www.w3.org/2000/svg" viewBox="0 0 2092 2008"><title>s-why-4</title><g id="Слой_2" data-name="Слой 2"><g id="Слой_1-2" data-name="Слой 1"><path d="M1754,2008H340c-2.51-.69-5-1.79-7.53-2a349.13,349.13,0,0,1-102.35-24.85c-131-53.37-215.2-174.81-226.23-304.68-.58-6.88-2.56-13.64-3.89-20.46V354c.9-3.87,2.05-7.7,2.66-11.62,3-19.07,4.58-38.43,8.81-57.21C46.16,131.22,175.86,20.29,324.41,3.89,334.29,2.8,344.14,1.31,354,0H1740c4.57.73,9.12,1.61,13.72,2.14,8.59,1,17.27,1.41,25.82,2.7,82.85,12.53,154,48.37,211.75,109.14,57.12,60.08,91.44,131.11,98.65,214.4.22,2.58,1.35,5.08,2.06,7.62V1674a80.24,80.24,0,0,0-2.17,8.5c-1.77,12.17-2.59,24.54-5.14,36.53-33,154.76-160.48,265.74-306.2,285.09C1770.3,2005.21,1762.16,2006.7,1754,2008ZM2010.38,962.87V951.81q0-293.41-.19-586.83A281.75,281.75,0,0,0,1727.9,83.66q-313.41-.21-626.82,0h-10.26a15.59,15.59,0,0,0-1.63,2.61,10.14,10.14,0,0,0-.51,2.94q-.11,431.86-.12,863.75c0,2.64.41,5.29.66,7.93a1.86,1.86,0,0,0,.48.83c.2.26.46.48,1.17,1.19Zm0,83.22H1090.52a11.25,11.25,0,0,0-1.33,2.14,10.27,10.27,0,0,0-.52,2.94q-.08,432.39-.1,864.76a64.93,64.93,0,0,0,.65,6.93,1.89,1.89,0,0,0,.49.83c.2.26.46.48,1.75,1.77h10.75q311.41,0,622.83-.15a307.71,307.71,0,0,0,47.77-3.56c136.38-21.75,237.3-139.7,237.5-277.89q.42-293.41.07-586.84ZM1005.9,83.62h-12q-313.42,0-626.83.2c-16.9,0-34.16,1.08-50.64,4.53Q156.36,121.89,99.54,275.76c-11.16,30.32-15,62-15,94.24q0,153.45,0,306.92,0,136,0,271.92c0,4.53.46,9,.69,13.3,12.91,2.3,912.91,1.71,920.65-.53ZM85.24,1046.09c-.25,4.28-.68,8.17-.68,12.06q0,291.42,0,582.85a290.19,290.19,0,0,0,10.15,77c31.44,114.72,137.31,207.34,273.36,207.41q313.42.18,626.84,0c3.55,0,7.09-.45,10.41-.68,2.2-15.18,1.41-871.21-.8-878.66Z"/><path d="M1655,494.54q81.95,0,163.88,0c21.65,0,37.73,13.44,41.66,34.26s-10.17,42.39-31,46.73a79.44,79.44,0,0,1-15.86,1.49q-159.37.12-318.76,0a71.47,71.47,0,0,1-18.76-2.14c-18.4-5.08-31.14-24.44-28.88-42.8,2.56-20.84,18-36.11,37.85-37.46,3-.21,6-.08,9-.09Z"/><path d="M1298.72,494.57c12.31,0,24.63-.34,36.92.08A40.33,40.33,0,0,1,1374,529c2.86,20.77-8.12,39.47-27.3,45.5A58.59,58.59,0,0,1,1330,577c-21.29.28-42.59.17-63.88.09-8.06,0-15.86-1.38-23.08-5.32-16.32-8.91-24.49-27.27-20.33-45.87,3.86-17.23,20-30.72,38.09-31.26C1273.42,494.26,1286.07,494.57,1298.72,494.57Z"/><path d="M1540.63,1537.3c-5.22,5-8.12,7.71-10.92,10.51q-77.78,77.75-155.47,155.56c-9.4,9.44-20,15.32-33.62,14.77-16.11-.64-28.08-8.17-35.3-22.31s-6.26-28.43,2.68-41.69c3-4.37,6.82-8.17,10.58-11.93q76.29-76.41,152.66-152.73c2.79-2.79,5.51-5.67,9-9.25-3-3.22-5.65-6.12-8.4-8.86q-78.09-78.13-156.24-156.22c-6.5-6.48-11.62-13.57-13.68-22.74a41.1,41.1,0,0,1,65.8-41.35,105.38,105.38,0,0,1,8,7.59l154.82,154.81c2.55,2.55,5.24,5,8.43,8,3.33-3.2,6.22-5.87,9-8.64q77.77-77.74,155.49-155.55c9.07-9.1,19.2-15.3,32.49-15.12,16.94.22,29.55,7.9,37,22.88s5.62,29.79-4.35,43.3c-2.55,3.46-5.79,6.43-8.85,9.49q-76.67,76.73-153.37,153.42c-2.78,2.78-5.43,5.67-8.69,9.08,3.05,3.16,5.51,5.78,8,8.31q78.46,78.48,157,156.91c6.26,6.25,11.22,13.07,13.29,21.85,4.17,17.67-3.05,35.54-18.34,44.91a41.52,41.52,0,0,1-48.45-3.93c-2.78-2.38-5.31-5.06-7.9-7.65q-76.35-76.34-152.64-152.74C1545.77,1545.16,1543.76,1541.56,1540.63,1537.3Z"/><path d="M587.45,494.54h14q111,0,222,0c19.94,0,35.15,11.07,40.73,29.18a40.66,40.66,0,0,1-31.62,52.12,89.76,89.76,0,0,1-15.89,1.2q-108,.12-216,0H587.45v12.65q0,110-.06,220a62.84,62.84,0,0,1-1.51,14.82c-4.71,19-21.75,31.54-41.39,30.84a40.55,40.55,0,0,1-38.43-33.26,81.41,81.41,0,0,1-1.13-14.89q-.1-108.49-.05-217V577.12H492.21q-108,0-216,0a94.06,94.06,0,0,1-14.92-1c-21.86-3.51-36.59-22.36-34.75-44.1a40.8,40.8,0,0,1,41-37.39c58.66-.17,117.33-.06,176-.07q27.49,0,55-.05c1.6,0,3.21-.33,5.8-.61.19-4.47.51-8.67.52-12.88,0-72.67-.06-145.33.15-218,0-6.88.75-14.13,3-20.57,6.55-18.77,25.47-29.14,45.53-25.94,18.27,2.92,32.64,19.08,33.82,38.15.2,3.32.09,6.66.09,10V494.54Z"/><path d="M546,1399.62q-135.44,0-270.88-.1c-6.91,0-14.13-.4-20.68-2.37-17.72-5.33-29.08-22.91-27.9-41.56a40.65,40.65,0,0,1,33.21-37.44,78,78,0,0,1,13.89-1.22q272.89-.09,545.77,0a64.21,64.21,0,0,1,18.68,2.54c18.81,5.84,30,24.4,27.57,44.57-2.21,18.39-17.8,33.42-36.79,35.23-4.29.41-8.65.29-13,.29Q680.91,1399.64,546,1399.62Z"/><path d="M547,1538.38q136.43,0,272.86.08c5.93,0,12.1.4,17.72,2.07,18.91,5.65,30.15,23.85,28,44.24-1.94,18.55-17.28,33.55-36.37,35.39-4,.38-8,.37-12,.37H275.56c-4,0-8,0-12-.31a40.61,40.61,0,0,1-37.14-42,41.06,41.06,0,0,1,38.73-39.73c3.32-.17,6.66-.07,10-.07Z"/></g></g></svg>