<svg xmlns="http://www.w3.org/2000/svg" viewBox="0 0 1788 1775"><title>s-why-1</title><g id="Слой_2" data-name="Слой 2"><g id="Слой_1-2" data-name="Слой 1"><path d="M0,1698c.39-4.4,1-8.79,1.13-13.19Q2.89,1619.89,4.52,1555c.62-23.47,1.33-46.94,2-70.41q1.53-55.66,3-111.35,1-35.2,2-70.41,1.53-55.68,3-111.35c.51-18.31,1.21-36.62,1.62-54.93a33.52,33.52,0,0,1,35.17-33c20.3.82,40.61,1.18,60.92,1.78q62.4,1.85,124.81,3.69c22,.62,44,1,65.94,1.58,5.65.15,11.4,0,16.91,1.11,15.57,3,26.2,16.13,26.07,32-.14,15.31-.69,30.63-1,46-.08,3.31,0,6.63,0,10.69,2.23-1,4-1.79,5.72-2.66a420.15,420.15,0,0,1,134.56-42.21q137.15-18.6,260.34,45c23.8,12.31,47.46,24.78,73.57,31.82,25.27,6.82,51,8.92,77.06,9.37,37.13.63,74.24,1.9,111.36,2.92,23.47.65,47,1.1,70.41,2,22.43.9,45.08.66,67.23,3.83,58.74,8.4,105.56,37.65,140.72,85.41,5.41,7.35,10,15.27,15.33,23.42,10.49-5,21.13-10,31.75-15,77.91-36.81,155.73-73.81,233.74-110.39,63.49-29.77,140.07-16.23,189.12,33.69,9.83,10,17.67,22,25.9,33.48,2.91,4.07,4.22,9.28,6.26,14v11c-3.48,11.28-10.68,19.12-20.66,25.57q-279,180.12-557.78,360.63c-18,11.64-35.72,23.59-56.06,31.31-40.84,15.5-82.73,25.93-126.31,29.45-6.74.55-13.46,1.35-20.19,2H972c-1.75-.34-3.49-.79-5.25-1-21.1-2.64-42.46-4-63.24-8.2-22.57-4.59-44.63-11.74-66.86-18Q665.77,1699.91,495,1651.76c-31.22-8.87-61.52-8.94-90.78,5.69-23.65,11.82-46.76,24.74-70,37.42-1.69.92-3.1,3.79-3.24,5.86-.5,7.13-.29,14.31-.51,21.47-.59,19.92-14.52,34.37-33.59,34.15-21.63-.25-43.26-1-64.89-1.67q-61.63-1.8-123.27-3.66c-25.79-.76-51.59-1.34-77.37-2.17A32.29,32.29,0,0,1,2.2,1727.37c-.67-1.82-1.46-3.58-2.2-5.37Zm1256.3-268a17,17,0,0,0,0-2,22.4,22.4,0,0,0-.55-2.94q-21.59-78.08-98.17-104.48c-21.22-7.29-43.29-6.65-65.19-7.47-23.29-.88-46.59-1.4-69.89-2-40.28-1.09-80.56-2.29-120.85-3.15-27.66-.58-55.18-1.84-82.38-7.58-35.2-7.44-67.67-21.59-99.17-38.5q-106.32-57.07-226-40.76c-50.41,6.91-97.26,24.21-140.74,50.73-6.85,4.18-13,8-11.06,17.51.23,1.09-.25,2.31-.28,3.47q-1.53,54.67-3,109.36-1.49,54.18-3,108.36-1.35,51.19-2.52,102.39c-.05,2,0,4.08,0,6.76,2.31-1.09,4-1.8,5.53-2.64,9.83-5.25,19.6-10.62,29.48-15.79,43-22.49,88.2-28.42,135-15.45q185.71,51.48,371.12,104.15c30.8,8.71,61.62,16.64,93.78,18.13,46.16,2.14,91.44-2.89,135.4-17.36,15-4.92,30.72-9.4,43.74-17.78q277.31-178.34,553.89-357.8c1.51-1,2.95-2.06,5.41-3.79-1.72-1.21-3-2-4.12-2.93-33.81-26.35-70.53-31.56-109.56-13.65-45.65,21-90.9,42.79-136.32,64.25q-64.75,30.58-129.5,61.17c-3,1.4-4.32,2.58-3.9,6.59a351.3,351.3,0,0,1,2.37,38.33c-.09,19.15-14.52,32.9-33.64,32.63-18.81-.27-37.61-1.13-56.42-1.65q-55.92-1.56-111.85-3c-23.31-.64-46.61-1.35-69.91-2q-61.43-1.63-122.86-3.2c-12.81-.34-25.7-.06-38.42-1.34-17.36-1.76-29.57-17.53-28.46-35.18a32.18,32.18,0,0,1,33-30.25c24.81.38,49.61,1.24,74.41,1.91l72.9,2q56.17,1.53,112.36,3c23.13.63,46.26,1.4,69.4,1.94C1236.2,1430.17,1246.15,1430,1256.3,1430ZM264.94,1688.24c.09-1.27.25-2.74.29-4.22.59-18.46,1.22-36.93,1.74-55.4q1.56-56.16,3-112.34c.49-19.14.81-38.29,1.36-57.43,1.16-41.1,2.47-82.2,3.63-123.3.61-22,1-44,1.58-65.92q1.2-44.45,2.66-88.86c.13-3.75-1.17-4.89-4.79-5q-51.92-1.27-103.84-2.79c-23.14-.64-46.27-1.35-69.4-2-6.42-.16-12.85,0-19.44,0-.28,2.22-.66,4-.71,5.83q-1.55,55.42-3,110.84-1,35.44-2,70.89Q74.5,1414,73,1469.43c-.65,23.63-1.36,47.26-2,70.89-1.2,45.78-2.28,91.55-3.62,137.32-.15,5,1.29,6.54,6.32,6.62,21.64.35,43.26,1.14,64.9,1.71,29.79.79,59.59,1.6,89.38,2.23C240.13,1688.45,252.25,1688.24,264.94,1688.24Z"/><path d="M1095,0c6.36,1,12.72,1.92,19.07,2.9A204.87,204.87,0,0,1,1191.54,32c25.69,16,53.69,22.34,83.84,21.08,59.89-2.5,111.34,17.51,154.15,59.42a180,180,0,0,1,33.33,45.31c13.71,26.1,34,45.07,60.35,58.34,58,29.29,94.6,75.54,107,139.68,2.66,13.73,3,28.15,2.56,42.19-.91,28.71,5.25,55.2,21.43,79,23.68,34.89,35,73.41,33.42,115.45a185.3,185.3,0,0,1-32.46,98.74c-17.2,25.36-23.76,53.16-22,83.74,1.67,29.17-4.48,57.3-16.77,83.87-19.06,41.22-48.82,72.6-89.41,92.78-29,14.4-50.32,35.28-66.13,63.5-30.77,54.9-78.43,86.95-140,98.87-16.31,3.15-32.76,3.46-49.26,2.8-29.5-1.17-56.53,6.35-81.61,21.91-35.47,22-74.32,32.14-116,30.73-35.77-1.21-69.33-10.88-99.73-29.88-26.74-16.71-55.47-24-86.88-22.77-58.71,2.41-109.52-16.78-152.06-57.35-13-12.36-24.27-26.29-32.39-42.28-15.31-30.13-38.67-50.89-68.59-66.48-57.56-30-92.06-77.9-102.74-142.1-2.18-13.15-1.83-26.85-1.57-40.28.52-27.28-5.85-52.48-21.22-75.11-17.63-25.94-28.9-54.33-32.45-85.46-5.27-46.19,4.54-89.12,30.47-127.86,16-23.91,24.46-49.81,23-78.55-2.93-57.7,16.35-106.76,56.68-147.74a171.16,171.16,0,0,1,48.79-35.23c29.22-13.8,50.48-35,66.34-63.22,31.85-56.74,81.12-89.61,145.17-99.86,13.68-2.19,27.85-2.5,41.74-2.07,29.63.91,57.17-5.34,82.39-21C999.8,14.24,1031,3.63,1064.78,1A15.49,15.49,0,0,0,1068,0Zm472.68,401.87c-.6-10.46-.21-21.09-2-31.34-7.46-43-31.19-74.57-70-94-40.24-20.12-70.47-49.58-92.29-88.95-24.53-44.24-63.87-65.89-113.88-68.69-10.27-.58-20.62.26-30.92,0-37-.77-70.73-12-102.45-30.87-50-29.73-100.12-29.1-150.39.23A297.19,297.19,0,0,1,964,108.16c-21.13,8.26-43.5,10.86-66.09,11.31-11.63.23-23.4-1-34.89.38-47.22,5.58-82.78,29-105.59,71.12-20,36.86-48.7,64.77-86.22,83.41-50.49,25.07-75.69,65.53-75.41,122,.06,12.14.16,24.4-1.35,36.4-3.83,30.38-14.92,58.14-32.23,83.47a119.32,119.32,0,0,0-21.07,67.64,120.65,120.65,0,0,0,21.29,70.07c21.29,31.38,32.78,66,33.56,103.93.23,11.5-1.05,23.13.29,34.47,5.43,46,29.41,79.93,70.44,100.63,40.17,20.27,70.31,49.6,92.57,88.71,27.6,48.48,70.89,70.6,126.55,69.44a295.51,295.51,0,0,1,42.29,1.83c29.34,3.64,56.11,14.69,81.15,30.32a132.51,132.51,0,0,0,62.65,19.85c31.4,2,60.14-6.09,86.86-22.77,31.18-19.46,65.53-28.92,102.25-29.84,15.11-.38,30.45.77,45.27-1.48,44.09-6.69,77.35-29.93,98.72-69.31,20.7-38.13,50.69-66,89.32-85.74,47.35-24.18,72.49-63.08,72.93-117,.11-13.81-.19-27.73,1.5-41.38,3.78-30.41,15.59-57.86,32.69-83.28,27.1-40.28,27.19-94.41.06-134.73C1577.89,482.49,1565.62,444.3,1567.68,401.87Z"/><path d="M1312,272.3c-1.28,3.22-2.86,10-6.34,15.59q-79.59,128.13-159.62,256-116.5,186.63-233,373.27c-8.7,13.94-23.85,19.87-38.7,15.23-14.51-4.53-24.35-18.1-22.87-33.56a43.39,43.39,0,0,1,6.4-18q70.43-113.55,141.35-226.78,125.09-200.41,250.19-400.82c11.94-19.12,34.62-23.34,50.93-9.54C1308.06,250.19,1311.6,258.75,1312,272.3Z"/><path d="M755.58,419.06c.72-52.49,17.79-98.18,57.84-133.54,26.82-23.69,58.47-35.53,94.38-33.88,38.19,1.75,69.8,18.2,95.39,46.16,27.28,29.8,41.67,65.35,44.8,105.48,3.78,48.53-8.39,92.5-39.35,130.43-24,29.44-54.87,47.93-93.06,51.85-39.77,4.08-74.63-8.39-104.17-35-31.17-28.15-48.34-63.79-54.28-105.09-.64-4.44-1.23-8.91-1.5-13.38S755.58,423.38,755.58,419.06ZM821.35,418c.38,30.6,9,57.18,29.61,79.25,27.86,29.83,71.18,30.62,100.1,1.82,20.5-20.42,30-45.6,31.27-74,1.41-30.61-6.4-58.47-27-81.76-29.25-33.07-73-34.34-103.8-3C830.17,361.93,821.85,388.93,821.35,418Z"/><path d="M1113.9,754.29c1-50.75,15.35-92.68,48.25-127.09,28.2-29.49,62.87-45.26,104-43.5,44.28,1.9,79.08,22.83,105.49,57.63,27.72,36.55,38.69,78.27,35.35,123.86-3,40.86-17.48,77-45.32,107.3-23.49,25.56-52.37,41.53-87.15,45.11-37.86,3.9-71.5-7.26-100.42-31.75-33.21-28.13-51.58-64.61-57.9-107.36C1114.85,769.3,1114.42,760,1113.9,754.29ZM1341.7,748c-.61-5.13-1-13.5-2.67-21.61-5.59-27.06-18-50-41.67-65.64-13.83-9.14-29.16-12.87-45.67-10.35-22.7,3.45-39.41,16.26-52,34.78-15.2,22.46-21,47.52-19.12,74.45,1.77,25.53,10.2,48.4,27.41,67.63,28.76,32.16,72.53,33.45,102.86,2.85C1332.49,808.33,1340.86,781.2,1341.7,748Z"/></g></g></svg>