<svg xmlns="http://www.w3.org/2000/svg" viewBox="0 0 1250.02 2133.8"><title>s-why-3</title><g id="Слой_2" data-name="Слой 2"><g id="Слой_1-2" data-name="Слой 1"><path d="M0,135V36a10.68,10.68,0,0,0,1-2.17Q7.15,7.13,33.83,1A10.68,10.68,0,0,0,36,0H1214a4.35,4.35,0,0,0,1.2.82c23.39,6,34.6,20.41,34.6,44.57,0,26.5.57,53-.12,79.49-1.4,53.54-26.91,91.86-75.23,114.63-6.11,2.88-8.07,5.59-8.06,12.24q.16,120.22-.38,240.45c-.2,38.56-5.19,76.66-13,114.41a638.38,638.38,0,0,1-95.63,228.22c-53.59,79.94-121.77,144.78-203.81,195.09-27.75,17-27.76,57.14-.05,74.14,84.69,52,154.69,119.16,208.72,202.6q102.36,158.05,104.18,346.56c.79,77.48.16,155,.09,232.48,0,3.47.46,5.63,4.25,7.16,48.64,19.57,79,64.8,79,117.2v79c0,27.36-17.29,44.74-44.5,44.74H42.89c-21.16,0-37.29-13-41.87-33.61A10.51,10.51,0,0,0,0,2098v-99c.47-2.58,1-5.15,1.39-7.73q12.26-70.56,78.15-98.59c2.93-1.23,4-2.67,4-5.83-.18-11-.08-22-.06-33,.15-70.81.09-141.62.55-212.43.26-40.23,5.59-80,14.08-119.26a639.23,639.23,0,0,1,95-223.68c53.51-79.58,121.46-144.13,203.13-194.34a44.72,44.72,0,0,0,10.64-8.92,43.55,43.55,0,0,0-10.61-65.42,660.38,660.38,0,0,1-132-106.12q-99.37-103.61-146-239.34A637.87,637.87,0,0,1,83.5,478.6c-.3-76.81-.09-153.63,0-230.45,0-3.59-.76-5.54-4.41-7.06-39.31-16.46-64.57-45.3-75.29-86.63C2.15,148.07,1.25,141.49,0,135ZM1083.44,1883.82V1878q0-110.25,0-220.5a564.74,564.74,0,0,0-7-89,552.49,552.49,0,0,0-87.54-223.1c-47-70.16-107.24-126.52-179.13-170.7-35.93-22.09-56.2-54.86-59.18-96.69-3.68-51.52,16.49-92.15,60.9-119.68,43.28-26.82,83-58.06,117.77-95.28q152.25-162.9,154.13-386c.6-73.66.11-147.32.09-221,0-1.91-.21-3.82-.32-5.8H166.56v6.61q0,105,0,210c-.06,33.36,1.87,66.54,7.18,99.52a550.67,550.67,0,0,0,48.85,155c49.07,100.45,122.13,179.07,217.13,237.56,80.79,49.74,80.8,166.49-.06,216.15C396,1201.9,356,1233.38,321,1270.83q-152.31,162.86-154.3,385.92c-.62,73.83-.11,147.66-.09,221.49,0,1.78.16,3.55.27,5.58ZM625,83.09H94a32.15,32.15,0,0,1-4.5,0c-4.89-.68-6.75,1-6.56,6.25.4,11.32,0,22.66.18,34a53.59,53.59,0,0,0,1.32,11.37c4.79,20.14,21.59,32.43,44.05,32.43q496.23,0,992.45,0c1.67,0,3.34,0,5-.06,20-1,37.78-15.42,39.8-34.32,1.65-15.33.9-30.93,1-46.41,0-1.06-2-2.63-3.29-3.07-1.67-.54-3.63-.15-5.46-.15Zm0,1967.82h505c10.67,0,21.34-.11,32,.05,3.55.06,5.09-.88,5-4.74-.19-12.33.12-24.67-.17-37a48.24,48.24,0,0,0-2.22-13.22c-5.85-18.35-22-29.1-43.08-29.1H128.55c-1.34,0-2.67,0-4,0-21.47.83-38.76,16.08-40.73,37.31-1.2,12.89-.59,26-.71,38.94-.08,7.73,0,7.74,7.89,7.74Z"/><path d="M583.44,1036.75c0-33.5.07-67-.14-100.5a14.23,14.23,0,0,0-3.09-8.41,207.18,207.18,0,0,0-50.27-43C452.17,837,385,777.44,331.82,702.83,299,656.77,273.51,607.11,259.74,551.9a309.22,309.22,0,0,1-9.54-75.58c0-25,0-50,0-75,0-16.54,6.93-29.49,21.47-37.42,14.27-7.78,28.87-7.14,42.74,1.48a587.54,587.54,0,0,0,195.15,77.47,571.69,571.69,0,0,0,139.58,11q154.29-6.93,285.84-88.1c14.21-8.79,28.94-9.81,43.56-1.7s21.25,21,21.24,37.56c0,28.66.7,57.36-.28,86-1.68,49.15-15.74,95.28-36.82,139.41-26,54.47-61.28,102.48-102.91,146-42.41,44.3-90.16,81.93-142.52,113.79-18.39,11.2-34.14,25.49-48,41.85a13.51,13.51,0,0,0-2.57,8.11q-.21,100-.11,200c0,19.75-12.12,36.18-30.2,41.13a41.46,41.46,0,0,1-52.89-40.08C583.31,1104.08,583.44,1070.41,583.44,1036.75ZM333.09,471.32c0,2.19,0,3.84,0,5.48a242.41,242.41,0,0,0,7.27,55.79c11,43.52,31.1,82.71,56.76,119.18C440.86,713.91,496.08,764,559.57,805.22c20.53,13.33,41.59,25.85,59.43,42.89,2,1.91,4.11,3.72,6.32,5.7,16.8-16.27,35.12-29.69,54.56-41.81,71.87-44.79,133.24-100.8,180-171.8,31.36-47.58,53.94-98.6,56.77-156.63.2-4,0-8.07,0-12.15C721.92,559.55,527.92,559.55,333.09,471.32Z"/><path d="M625,1800.56q-164,0-328-.1c-6.24,0-12.81-.53-18.66-2.5-16.76-5.65-26.85-18-27.84-35.45-1.43-25.45-.58-50.92,6.06-75.87,9.28-34.89,29.64-61.72,59.06-82.1,24.52-17,51.63-28.92,79-40.38,46.2-19.39,92.15-39.26,135.26-65.07a213.24,213.24,0,0,0,60.34-53.21c19.07-24.84,50.47-24.73,69.45.2,19.43,25.51,44.28,44.37,72.11,59.88,38.45,21.42,78.6,39.13,119.08,56.19,27.61,11.64,55.1,23.51,80.21,40.17,39.33,26.09,62.34,62.32,66.75,109.39a325.76,325.76,0,0,1,.74,55.25c-1.38,17.79-18.27,31.76-36.16,33.07-4.64.33-9.3.51-14,.51Q786.7,1800.59,625,1800.56Zm-290-83.7H914.9c-2.65-19.22-12.28-33.91-28-43.82a372.21,372.21,0,0,0-42.53-23c-40-18.46-80.65-35.58-120.45-54.47-28.11-13.33-55.36-28.54-79.89-48-6.49-5.15-12.71-10.64-18.9-15.83-.5.11-.7.1-.81.19-3.66,3.14-7.3,6.31-11,9.44-26.93,23-57.62,40.25-89.32,55.39-36.76,17.55-74.31,33.44-111.48,50.13-18.82,8.46-37.86,16.55-54.22,29.52C345.33,1686.71,337.53,1700,335,1716.86Z"/><path d="M625,1345.89a41.39,41.39,0,1,1,41.6-41.43A41.23,41.23,0,0,1,625,1345.89Z"/></g></g></svg>