<?xml version="1.0" encoding="utf-8"?>
<!-- Generator: Adobe Illustrator 23.0.2, SVG Export Plug-In . SVG Version: 6.00 Build 0)  -->
<svg version="1.1" id="Слой_1" xmlns="http://www.w3.org/2000/svg" xmlns:xlink="http://www.w3.org/1999/xlink" x="0px" y="0px"
	 viewBox="0 0 2042 2042" style="enable-background:new 0 0 2042 2042;" xml:space="preserve">
<style type="text/css">
	.st0{fill:#DB1E32;}
</style>
<title>s-why-2</title>
<g>
	<g id="Слой_1-2">
		<path class="st0" d="M0,1903V522c1-6.9,1.7-13.8,3.2-20.6c12.3-55.7,44.8-93.8,99-112.2c11.1-3.8,23.1-4.5,34.6-7.3
			c20.7-5,41.2-10.5,61.8-15.8l440.6-113.3L969.1,168l335.2-86.2c93.1-23.9,186.1-47.9,279.2-71.8c12.2-3.2,24.3-6.7,36.5-10h17
			c1.2,0.4,2.5,0.8,3.7,1c22,1.7,43.1,9.6,61,22.6c41.6,30.2,61.3,72.1,61.8,122.6c0.8,76.6,0.2,153.3,0.2,229.9v6.8
			c13.1,0,25.4,0.1,37.7,0c22.5-0.2,44.2,4.2,64,14.8c52.5,28.1,79.6,72.5,80.4,131.8c0.9,65.1,0.2,130.3,0.2,195.4
			c0,50.5,0.1,101-0.1,151.4c0,4.6,1.3,6,5.9,5.9c15.5-0.3,31-0.1,46.5-0.1c19.9-0.1,37.2,13.5,42,32.8c0.5,2,1.1,4.1,1.7,6.1v574
			c-0.4,0.7-0.7,1.5-0.9,2.3c-4,23.3-18.8,35.8-42.4,35.8c-13.5,0-27,0-40.5,0c-7.6,0-7.6,0-7.6,7.4c0,116.3,0,232.6-0.1,348.9
			c0,8.2-0.5,16.3-1.5,24.4c-7.8,62-52.4,110.9-113.6,124.3c-7.7,1.7-15.6,2.7-23.4,4H135c-5.2-0.8-10.4-1.5-15.6-2.4
			c-59.3-10.9-106-57.9-116.3-117C2,1916,1,1909.5,0,1903z M973.2,1959.4c274.8,0,549.7,0,824.5-0.1c7.8,0.1,15.6-0.9,23.1-3
			c26-8,43.3-33.8,43.4-63.1c0-117.7,0-235.3,0-353c0-7.2,0-7.2-7.4-7.2c-142.7,0-285.3,0-428,0.1c-29,0-57.5-3.4-85.3-11.3
			c-94.2-27-163.6-84.2-207.2-171.9c-26.8-53.9-36.1-111.3-31.2-171.2c3.6-44.5,15-87.1,36.9-126c62.2-110.6,157.7-168.3,284-170.1
			c142.5-2.1,285-0.5,427.5-0.5c3.5,0,6.2,0.4,6.2-4.9c-0.1-115.2-0.1-230.3,0-345.5c0.1-33.7-24.6-67.2-67.9-67.2
			c-547.3,0.5-1094.7,0.6-1642,0.3c-2,0-4-0.1-6,0c-17.6,0.6-32.3,7.2-44,20.4c-12.6,14.2-17.1,31-17.1,49.8
			c0.1,451.5,0.1,903,0.1,1354.5c0,1,0,2,0,3c0.2,24.1,9.4,43.7,29.5,57.5c11,7.5,23.4,9.6,36.6,9.6
			C423.5,1959.4,698.3,1959.4,973.2,1959.4z M1680.9,973.6c-85.5,0-171,0-256.4,0.1c-10.5,0-21,0.9-31.3,2.5
			c-58.5,9.7-107.2,37.3-145.4,82.5c-46.1,54.6-65,117.8-54.6,188.7c8,54.8,33.4,101.2,73.9,138.8c45.7,42.4,99.9,64.8,162.5,64.8
			c172.6,0.2,345.3,0.2,517.9,0.1c7.4,0,7.4,0,7.4-7.1V980.6c0-7,0-7-7-7L1680.9,973.6z M1681.1,382.2v-7c0-75.7,0.1-151.3-0.1-227
			c0-7.7-1.1-15.3-3.2-22.6c-5.5-18.7-15.9-33.7-34.7-41.3c-3.1-1.1-6.4-1.3-9.6-0.5c-81.5,20.9-162.9,42-244.4,63.2L867.6,282.2
			l-369.8,95.9c-3.8,1-7.6,2.1-11.4,3.2l0.2,0.9L1681.1,382.2z"/>
		<path class="st0" d="M1444.1,1173.9c9,0,18.1-1.1,26.9,0.2c23.1,3.4,37.2,22.3,35.9,46.4c-1.1,20-18.9,37.8-40.3,38.8
			c-16.1,0.7-32.4,0.9-48.4-0.6c-21.7-2-37.9-22.4-36.7-44c1.4-24.8,17.7-41.1,41.6-41.6c7-0.1,14,0,21,0V1173.9z"/>
	</g>
</g>
</svg>
