<?xml version="1.0" encoding="utf-8"?>
<!-- Generator: Adobe Illustrator 23.0.2, SVG Export Plug-In . SVG Version: 6.00 Build 0)  -->
<svg version="1.1" id="Capa_1" xmlns="http://www.w3.org/2000/svg" xmlns:xlink="http://www.w3.org/1999/xlink" x="0px" y="0px"
	 viewBox="0 0 304.8 304.8" style="enable-background:new 0 0 304.8 304.8;" xml:space="preserve">
<g>
	<g id="Layer_5_88_">
		<g>
			<path d="M168.5,241.5c0-40.3,32.6-72.9,72.9-72.9c8.5,0,14,1,19.7,2.7c3.9,1.6,5.4-1.6,5.8-3.1c2.6-9.8,4.1-19.9,4.1-30
				c0-0.7-0.4-86.7-0.4-87.8c0-8.5-4.9-8.5-7-8.5C248,42,232.1,42,215.4,37.2C180.7,27.2,149.9,0,138.1,0c-11.4,0-34.3,27.2-69,37.2
				c-19.6,5.6-38.3,4.6-55.9,3.8c-2.1-0.1-5.3-0.6-6.4,6.5c-0.3,1.8-1.6,89.7-1.6,90.7c0,85.9,106.3,166.6,132.9,166.6
				c8.5,0,22.2-6.8,40.7-20.6c2.5-2.1,1.1-3.5,0.4-4.7C172.4,268.4,168.5,255.4,168.5,241.5z"/>
			<path d="M241.9,278.6c-2.5,2.6-6.8,3.1-9.7,0.9l-46.2-34.1c-2.9-2.1-3.5-6.3-1.3-9.1l5.9-7.9c2.2-2.9,6.3-3.5,9.2-1.4l29.6,21.7
				c2.9,2.1,7.3,1.7,9.8-0.9l41.8-43.7c2.5-2.6,6.6-2.8,9.3-0.3l7.2,6.7c2.6,2.5,2.8,6.6,0.3,9.3L241.9,278.6z"/>
		</g>
	</g>
</g>
</svg>
