<svg xmlns="http://www.w3.org/2000/svg" viewBox="0 0 2550 1794"><title>truck</title><g id="Слой_2" data-name="Слой 2"><g id="Слой_1-2" data-name="Слой 1"><path d="M194,0H1290a59.08,59.08,0,0,0,6.49,1.49c27.91,3.33,51.43,15.16,70.14,36.24,19.22,21.66,27.72,47.23,27.72,76q0,537.9,0,1075.81a78.78,78.78,0,0,1-.38,10c-1.51,11.89-7.07,21.26-17.44,27.66-7.43,4.58-15.53,5.23-24,5.23q-609.88-.09-1219.78-.05c-2,0-4,0-6,0-17.71-.47-31.1-11.08-35.14-28.34a61.25,61.25,0,0,1-1.2-13.81q-.08-536.91,0-1073.81A181.47,181.47,0,0,1,91.7,95.52C97,50.79,131.78,12.84,175.75,3.66,181.82,2.39,187.91,1.22,194,0Z"/><path d="M2550,1500c-7.2,17.48-20.4,24.52-39.1,24.46-93-.29-186-.13-279-.13h-11.56c-14.62-85.95-56.71-154.47-128.15-203.93-53.69-37.17-113.92-54.41-179-51.86-132,5.19-258.85,101.17-284.38,255.18h-593.3c-11.69-72.11-44.88-132.69-98.65-183.39h559.94c.32-3.15.68-5.69.79-8.25.13-3,0-6,0-9q0-511.44-.21-1022.89c0-32.37,21.28-62.33,53.66-70.81a86.81,86.81,0,0,1,21.61-2.92c115-.18,230-1,345,.19,72.47.74,136.43,26,191,74.41,19.34,17.16,35.55,36.79,49.93,58.12q70.08,104,140.21,207.92c26.63,39.47,53.53,78.78,79.93,118.41a281.82,281.82,0,0,1,47.14,136.12c1.1,13.9,1.67,27.88,1.68,41.83q.16,231.48.07,463v13.38c4.15.21,7.39.52,10.62.52,23.33,0,46.68.58,70-.15,19.23-.61,33.55,5.85,41.73,23.84ZM1925.29,748.33q112,0,224-.07c4.93,0,10.13-.18,14.73-1.71,21.86-7.31,31.94-34.7,17.58-54.75-30.24-42.23-59.91-84.86-89.78-127.35q-42.79-60.87-85.56-121.76c-7.25-10.28-16.54-17.07-29.89-17.06-92.67.07-185.33,0-278,.22a34.45,34.45,0,0,0-16.11,4.19c-13,7.25-18.76,18.69-18.71,33.84.24,82,.53,164-.17,246-.19,22,18.78,39.09,38.92,38.84C1776.62,747.76,1851,748.33,1925.29,748.33Z"/><path d="M718,1794c-5.76-1.17-11.5-2.49-17.3-3.48-43.15-7.35-80.77-26-113.08-55.43-44.36-40.4-69-90.76-73.55-150.34-4.81-63.4,13.59-120,55.82-167.68,39.05-44.06,88.25-69.88,147.41-75.42,66.47-6.22,124.9,12.54,174.78,57,40,35.66,63.94,80.3,72.2,133.17,8.31,53.14-.64,103.41-28,149.71-34.56,58.46-85.66,94.4-152.17,108.36-6.68,1.4-13.39,2.74-20.08,4.1Zm134.34-226.48c2.08-57.45-46.16-113.2-112.53-113-64.45.19-112.26,53.46-112.25,112.8,0,61.64,51.27,111.79,111.52,112.51C803.13,1680.57,854.43,1625.61,852.34,1567.52Z"/><path d="M1902,1794c-9-1.81-18-3.4-26.92-5.45-64.08-14.77-112.71-50.89-146.43-107-20.85-34.74-30.83-72.86-30.81-113.19,0-57.82,19-108.91,57.64-152.27,36.65-41.14,82.52-66.15,136.91-73.38,73.68-9.8,138.18,11,191.85,63.1,36.11,35.08,58,77.88,65,127.49,9.71,69.7-8.1,132.07-55.11,185-38.24,43.07-86.36,67.82-143.75,74.25-.82.09-1.56,1-2.34,1.49Zm22.57-114.33c58,.68,112.36-45.91,112.92-112a112.25,112.25,0,0,0-111.88-113.13c-66.08-.24-112.75,53.41-113.39,111.63C1811.54,1628,1862.83,1680.19,1924.57,1679.67Z"/><path d="M0,1368c2-3,4.07-6,5.81-9.13,6.54-11.86,16.93-17.38,30-18.5,2.31-.2,4.66,0,7,0H543.14l1,1.87c-53.89,49-87.52,108.87-99.17,182.13H434.34q-196.92,0-393.84.05c-17,0-29.48-6.53-36.66-22.34-.73-1.6-2.53-2.71-3.84-4Z"/></g></g></svg>