<?xml version="1.0" encoding="utf-8"?>
<!-- Generator: Adobe Illustrator 23.0.2, SVG Export Plug-In . SVG Version: 6.00 Build 0)  -->
<svg version="1.1" id="Layer_1" xmlns="http://www.w3.org/2000/svg" xmlns:xlink="http://www.w3.org/1999/xlink" x="0px" y="0px"
	 viewBox="0 0 322 322" style="enable-background:new 0 0 322 322;" xml:space="preserve">
<g id="XMLID_7_">
	<path id="XMLID_8_" d="M275.4,135.1c0.4-45.4-38.3-87-86.2-92.8c-1-0.1-2-0.3-3.1-0.5c-2.4-0.4-4.8-0.8-7.3-0.8
		c-9.8,0-12.4,6.9-13.1,11c-0.7,4,0,7.4,1.9,10c3.3,4.4,9,5.2,13.6,5.8c1.3,0.2,2.6,0.4,3.7,0.6c43,9.6,57.5,24.7,64.6,67.4
		c0.2,1,0.3,2.3,0.3,3.7c0.3,5.1,1,15.7,12.4,15.7h0c1,0,2-0.1,3-0.2c10.6-1.6,10.3-11.3,10.1-16c0-1.3-0.1-2.6,0-3.4
		C275.4,135.5,275.4,135.3,275.4,135.1z"/>
	<path id="XMLID_9_" d="M176.1,25.7c1.3,0.1,2.5,0.2,3.5,0.3c70.7,10.9,103.2,44.4,112.2,115.6c0.2,1.2,0.2,2.7,0.2,4.3
		c0.1,5.6,0.3,17.1,12.7,17.4l0.4,0c3.9,0,7-1.2,9.2-3.5c3.9-4,3.6-10.1,3.4-14.9c-0.1-1.2-0.1-2.3-0.1-3.3
		c0.9-72.9-62.2-138.9-135-141.4c-0.3,0-0.6,0-0.9,0c-0.1,0-0.4,0-0.9,0c-0.7,0-1.6-0.1-2.6-0.1c-1.1-0.1-2.4-0.2-3.8-0.2
		c-11.6,0-13.8,8.2-14.1,13.2C159.8,24.5,170.8,25.3,176.1,25.7z"/>
	<path id="XMLID_10_" d="M288.4,233.7c-1.5-1.1-3.1-2.3-4.5-3.5c-7.7-6.2-15.9-11.9-23.9-17.5c-1.6-1.1-3.3-2.3-4.9-3.4
		c-10.2-7.1-19.3-10.6-28-10.6c-11.6,0-21.8,6.4-30.2,19.1c-3.7,5.6-8.2,8.4-13.8,8.4c-3.3,0-7-0.9-11.1-2.8
		c-32.8-14.9-56.3-37.7-69.7-67.9c-6.5-14.6-4.4-24.1,7-31.8c6.5-4.4,18.5-12.6,17.7-28.3c-1-17.8-40.2-71.3-56.8-77.4
		c-7-2.6-14.4-2.6-21.9-0.1c-19,6.4-32.7,17.6-39.5,32.5C2.4,64.7,2.7,81.6,9.8,99.1c20.6,50.7,49.7,94.8,86.2,131.3
		c35.8,35.7,79.8,64.9,130.8,86.9c4.6,2,9.4,3.1,12.9,3.8c1.2,0.3,2.2,0.5,3,0.7c0.4,0.1,0.8,0.2,1.3,0.2l0.4,0c0,0,0,0,0,0
		c24,0,52.8-21.9,61.6-46.9C313.9,253.2,299.7,242.4,288.4,233.7z"/>
	<path id="XMLID_11_" d="M186.7,83.6c-4.1,0.1-12.7,0.3-15.7,9c-1.4,4.1-1.2,7.6,0.5,10.5c2.5,4.3,7.4,5.6,11.9,6.3
		c16.1,2.6,24.4,11.5,26,28c0.8,7.7,6,13.1,12.6,13.1h0c0.5,0,1,0,1.5-0.1c8-1,11.9-6.8,11.5-17.5c0.1-11.1-5.7-23.7-15.6-33.8
		C209.5,89,197.6,83.3,186.7,83.6z"/>
</g>
</svg>
